<svg xmlns="http://www.w3.org/2000/svg" width="80.941" height="90.877" viewBox="0 0 80.941 90.877"><g><path d="M11.3 84.577C5.069 84.577 0 79.763 0 73.848V10.731C0 4.814 5.069 0 11.3 0h43.871L72 19.348v54.5c0 5.916-5.068 10.729-11.3 10.729zM3.512 10.731v63.117a7.6 7.6 0 0 0 7.788 7.394h49.4a7.6 7.6 0 0 0 7.782-7.395v-52.23H58.353a5.633 5.633 0 0 1-5.765-5.476V3.335H11.3a7.606 7.606 0 0 0-7.788 7.4zm52.588 5.41a2.2 2.2 0 0 0 2.253 2.14h8.162L56.1 6.3zm-1.743 52.723V31.45h8.091v37.414zm-4.45 0V31.45h2.426v37.414zm-6.877 0V31.45h6.07v37.414zm-8.091 0V31.45h4.854v37.414zm-4.854 0V31.45h2.425v37.414zm-6.067 0V31.45h4.45v37.414zm-2.427 0h-2.026V31.45H22v37.414zm-12.946 0V31.45h8.09v37.414z" fill="#cacbcc"/><circle cx="13" cy="13" r="13" transform="translate(51 60)" fill="#fff"/></g><path d="M80.941 73.438A17.438 17.438 0 1 1 63.5 56a17.438 17.438 0 0 1 17.441 17.438zm-19.455 9.233l12.938-12.933a1.125 1.125 0 0 0 0-1.591l-1.591-1.6a1.125 1.125 0 0 0-1.591 0L60.691 77.1l-4.926-4.926a1.125 1.125 0 0 0-1.591 0l-1.592 1.59a1.125 1.125 0 0 0 0 1.591l7.318 7.316a1.125 1.125 0 0 0 1.591 0z" fill="#009615"/></svg>