<svg xmlns="http://www.w3.org/2000/svg" width="81.638" height="92" viewBox="0 0 81.638 92"><path d="M11.3 84.577C5.069 84.577 0 79.763 0 73.848V10.731C0 4.814 5.069 0 11.3 0h43.871L72 19.348v54.5c0 5.916-5.068 10.729-11.3 10.729zM3.512 10.731v63.117a7.6 7.6 0 0 0 7.788 7.394h49.4a7.6 7.6 0 0 0 7.782-7.395v-52.23H58.353a5.633 5.633 0 0 1-5.765-5.476V3.335H11.3a7.606 7.606 0 0 0-7.788 7.396zm52.588 5.41a2.2 2.2 0 0 0 2.253 2.14h8.162L56.1 6.3zm-1.743 52.723V31.45h8.091v37.414zm-4.45 0V31.45h2.426v37.414zm-6.877 0V31.45h6.07v37.414zm-8.091 0V31.45h4.854v37.414zm-4.854 0V31.45h2.425v37.414zm-6.067 0V31.45h4.45v37.414zm-2.427 0h-2.026V31.45h2.43v37.414zm-12.946 0V31.45h8.09v37.414z" fill="#cacbcc"/><g transform="translate(45.368 56)"><ellipse cx="16.278" cy="16.286" rx="16.278" ry="16.286" transform="translate(3.714 1.715)" fill="#fff"/><path d="M17.993 0A18.017 18.017 0 0 0 .001 18a18.017 18.017 0 0 0 17.992 18 18.017 18.017 0 0 0 17.992-18A18.017 18.017 0 0 0 17.993 0zm9.358 23.89a2.318 2.318 0 0 1 0 3.281 2.311 2.311 0 0 1-1.639.679 2.314 2.314 0 0 1-1.64-.679l-5.887-5.89-5.887 5.89a2.311 2.311 0 0 1-1.639.679 2.311 2.311 0 0 1-1.639-.679 2.319 2.319 0 0 1 0-3.281L14.907 18 9.02 12.112a2.319 2.319 0 0 1 0-3.281 2.3 2.3 0 0 1 1.639-.679 2.3 2.3 0 0 1 1.639.679l5.887 5.89 5.887-5.89a2.306 2.306 0 0 1 1.64-.679 2.3 2.3 0 0 1 1.639.679 2.318 2.318 0 0 1 0 3.281L21.464 18z" fill="#cacbcc"/></g></svg>