<svg xmlns="http://www.w3.org/2000/svg" width="17.349" height="17.351" viewBox="0 0 17.349 17.351"><path d="M10.586 6.763a3.937 3.937 0 0 0-.679-.546 4.049 4.049 0 0 0-5.046.546l-3.678 3.68a4.048 4.048 0 0 0 5.722 5.728l3.036-3.036a.289.289 0 0 0-.205-.494H9.62a4.867 4.867 0 0 1-1.851-.358.289.289 0 0 0-.315.064l-2.183 2.185a1.736 1.736 0 1 1-2.455-2.455l3.692-3.689a1.735 1.735 0 0 1 2.452 0 1.185 1.185 0 0 0 1.625 0 1.145 1.145 0 0 0 0-1.625z" fill="#f37021"/><path d="M16.163 1.186a4.048 4.048 0 0 0-5.725 0l-3.033 3.03a.29.29 0 0 0 .211.494h.107a4.857 4.857 0 0 1 1.848.361.289.289 0 0 0 .315-.064l2.177-2.174a1.736 1.736 0 0 1 2.455 2.456L11.806 8l-.023.026-.948.943a1.735 1.735 0 0 1-2.452 0 1.185 1.185 0 0 0-1.625 0 1.153 1.153 0 0 0 0 1.631 4.014 4.014 0 0 0 1.157.81c.061.029.121.052.182.078s.124.046.185.069.124.043.185.061l.171.046c.116.029.231.052.35.072a4.025 4.025 0 0 0 .431.04h.22l.173-.02c.064 0 .13-.017.205-.017h.1l.2-.029.093-.017.168-.035h.032a4.047 4.047 0 0 0 1.877-1.064l3.681-3.681a4.048 4.048 0 0 0-.005-5.727z" fill="#f37021"/></svg>