<svg xmlns="http://www.w3.org/2000/svg" width="112.651" height="40" viewBox="0 0 112.651 40"><path d="M46.439 37.35V14.41a7.642 7.642 0 0 1 7.643-7.642l6.773.01a7.631 7.631 0 0 1 7.616 7.631v4.883a7.643 7.643 0 0 1-7.642 7.643h-9.572M70.363 6.764h2.938A3.136 3.136 0 0 1 76.437 9.9v17.137" fill="none" stroke="#939598" stroke-linecap="round" stroke-linejoin="round" stroke-miterlimit="10"/><path d="M75.807 4.11l-1.332-1.333a.846.846 0 0 1 0-1.2L75.807.246a.847.847 0 0 1 1.2 0l1.327 1.334a.846.846 0 0 1 0 1.2l-1.332 1.333a.847.847 0 0 1-1.2 0" fill="#cacbcc"/><path d="M82.074 6.749h2.914a5.651 5.651 0 0 1 4 1.655l6.811 6.815a2.26 2.26 0 0 0 3.2 0l6.79-6.79a5.651 5.651 0 0 1 4-1.655h2.369M82.074 26.887h2.914a5.651 5.651 0 0 0 4-1.655l6.815-6.815a2.261 2.261 0 0 1 3.2 0l6.79 6.79a5.651 5.651 0 0 0 4 1.655h2.369" fill="none" stroke="#939598" stroke-linecap="round" stroke-linejoin="round" stroke-miterlimit="10"/><path d="M29.067 31.241a5.441 5.441 0 0 1-3.872-1.6l-5.591-5.59a1.063 1.063 0 0 0-1.469 0l-5.61 5.604a5.442 5.442 0 0 1-3.872 1.6h-1.1l7.08 7.081a5.663 5.663 0 0 0 8.008 0l7.1-7.1zM8.654 11.465a5.441 5.441 0 0 1 3.872 1.6l5.61 5.615a1.04 1.04 0 0 0 1.469 0l5.59-5.591a5.442 5.442 0 0 1 3.872-1.6h.669l-7.1-7.1a5.662 5.662 0 0 0-8.008 0l-7.08 7.08z" fill="#cacbcc"/><path d="M35.613 17.359l-4.291-4.291a.817.817 0 0 1-.3.062h-1.951a3.856 3.856 0 0 0-2.709 1.122l-5.591 5.591a2.675 2.675 0 0 1-1.9.785 2.677 2.677 0 0 1-1.9-.785l-5.611-5.611a3.856 3.856 0 0 0-2.709-1.122h-2.4a.814.814 0 0 1-.288-.058L1.655 17.36a5.662 5.662 0 0 0 0 8.008l4.308 4.308a.815.815 0 0 1 .288-.058h2.4a3.856 3.856 0 0 0 2.709-1.122l5.611-5.611a2.748 2.748 0 0 1 3.8 0l5.591 5.59a3.855 3.855 0 0 0 2.709 1.122h1.951a.817.817 0 0 1 .3.061l4.291-4.291a5.662 5.662 0 0 0 0-8.008" fill="#cacbcc"/></svg>