<svg xmlns="http://www.w3.org/2000/svg" width="246.648" height="212.42" viewBox="0 0 246.648 212.42"><defs><clipPath id="a"><path fill="#fffbe1" d="M0 0h75.448v75.448H0z"/></clipPath><clipPath id="b"><path fill="none" d="M0 0h6.204v3.348H0z"/></clipPath><linearGradient id="c" x1=".5" y1="1.12" x2=".5" y2=".12" gradientUnits="objectBoundingBox"><stop offset="0" stop-color="#fffbe1" stop-opacity="0"/><stop offset="1" stop-color="#7dc5ea"/></linearGradient></defs><rect width="97.34" height="201.876" rx="12.304" fill="#dedede" transform="translate(5.427 5.271)" opacity=".5"/><path d="M34.486.892h39.22v4.889a7.051 7.051 0 0 1-7.051 7.051H41.133a6.647 6.647 0 0 1-6.647-6.647V.892z" fill="#383838"/><path d="M95.807 212.419H12.386A12.388 12.388 0 0 1 0 200.057v-187.7A12.388 12.388 0 0 1 12.386-.004h83.421a12.388 12.388 0 0 1 12.386 12.361v187.7a12.388 12.388 0 0 1-12.386 12.362zM12.386 1.958a10.425 10.425 0 0 0-10.424 10.4v187.7a10.426 10.426 0 0 0 10.424 10.4h83.421a10.426 10.426 0 0 0 10.424-10.4v-187.7a10.425 10.425 0 0 0-10.424-10.4z" fill="#383838"/><path d="M42.605 8.07a1.58 1.58 0 1 1-1.58-1.58 1.58 1.58 0 0 1 1.58 1.58z" fill="#7a7a7a"/><rect width="17.141" height="1.973" rx=".986" fill="#7a7a7a" transform="translate(45.526 7.084)"/><path d="M24.164 200.108h-6.419a.327.327 0 0 1-.327-.327v-3.21a.325.325 0 0 1 .1-.231l3.21-3.21a.336.336 0 0 1 .462 0l3.209 3.21a.326.326 0 0 1 .1.231v3.21a.327.327 0 0 1-.335.327zm-6.092-.654h5.765v-2.747l-2.883-2.883-2.882 2.883zM54.694 200.108a3.537 3.537 0 1 1 3.537-3.537 3.54 3.54 0 0 1-3.537 3.537zm0-6.42a2.883 2.883 0 1 0 2.883 2.883 2.886 2.886 0 0 0-2.883-2.883zM90.21 200.109a.327.327 0 0 1-.327-.327v-5.406a.327.327 0 1 1 .654 0v5.406a.327.327 0 0 1-.327.327zM87.846 200.109a.327.327 0 0 1-.327-.327v-5.406a.327.327 0 1 1 .654 0v5.406a.327.327 0 0 1-.327.327zM85.481 200.109a.327.327 0 0 1-.327-.327v-5.406a.327.327 0 1 1 .654 0v5.406a.327.327 0 0 1-.327.327z" fill="#383838"/><path fill="#fffbe1" d="M16.378 38.509h75.448v75.448H16.378z"/><g clip-path="url(#a)" transform="translate(16.378 38.509)"><path fill="#dedede" d="M-.01-.01h75.459v75.459H-.01z"/></g><path d="M42.388 43.703h2.602v2.602h-2.602zM47.592 43.703h2.602v2.602h-2.602zM50.194 43.703h2.602v2.602h-2.602zM58 43.703h2.602v2.602H58zM44.99 46.305h2.602v2.602H44.99zM47.592 46.305h2.602v2.602h-2.602zM52.796 46.305h2.602v2.602h-2.602zM42.388 48.907h2.602v2.602h-2.602zM44.99 48.907h2.602v2.602H44.99zM52.796 48.907h2.602v2.602h-2.602zM55.398 48.907H58v2.602h-2.602zM60.602 48.907h2.602v2.602h-2.602zM63.204 48.907h2.602v2.602h-2.602zM47.592 51.509h2.602v2.602h-2.602zM50.194 51.509h2.602v2.602h-2.602zM55.398 51.509H58v2.602h-2.602zM58 51.509h2.602v2.602H58zM63.204 51.509h2.602v2.602h-2.602zM44.99 54.111h2.602v2.602H44.99zM50.194 54.111h2.602v2.602h-2.602zM58 54.111h2.602v2.602H58zM42.388 56.713h2.602v2.602h-2.602zM47.592 56.713h2.602v2.602h-2.602zM55.398 56.713H58v2.602h-2.602zM63.204 56.713h2.602v2.602h-2.602zM42.388 59.315h2.602v2.602h-2.602zM47.592 59.315h2.602v2.602h-2.602zM52.796 59.315h2.602v2.602h-2.602zM58 59.315h2.602v2.602H58zM63.204 59.315h2.602v2.602h-2.602zM58 61.917h2.602v2.602H58zM63.204 61.917h2.602v2.602h-2.602zM21.572 64.519h2.602v2.602h-2.602zM26.776 64.519h2.602v2.602h-2.602zM37.184 64.519h2.602v2.602h-2.602zM39.786 64.519h2.602v2.602h-2.602zM47.592 64.519h2.602v2.602h-2.602zM50.194 64.519h2.602v2.602h-2.602zM58 64.519h2.602v2.602H58zM60.602 64.519h2.602v2.602h-2.602zM63.204 64.519h2.602v2.602h-2.602zM71.01 64.519h2.602v2.602H71.01zM78.816 64.519h2.602v2.602h-2.602zM84.02 64.519h2.602v2.602H84.02z"/><path d="M21.572 67.121h2.602v2.602h-2.602zM24.174 67.121h2.602v2.602h-2.602zM34.582 67.121h2.602v2.602h-2.602zM39.786 67.121h2.602v2.602h-2.602zM42.388 67.121h2.602v2.602h-2.602zM47.592 67.121h2.602v2.602h-2.602zM55.398 67.121H58v2.602h-2.602zM60.602 67.121h2.602v2.602h-2.602zM63.204 67.121h2.602v2.602h-2.602zM65.806 67.121h2.602v2.602h-2.602zM68.408 67.121h2.602v2.602h-2.602zM71.01 67.121h2.602v2.602H71.01zM76.214 67.121h2.602v2.602h-2.602zM81.418 67.121h2.602v2.602h-2.602z"/><path d="M84.02 67.121h2.602v2.602H84.02zM24.174 69.723h2.602v2.602h-2.602zM26.776 69.723h2.602v2.602h-2.602zM31.98 69.723h2.602v2.602H31.98zM34.582 69.723h2.602v2.602h-2.602zM37.184 69.723h2.602v2.602h-2.602zM39.786 69.723h2.602v2.602h-2.602zM42.388 69.723h2.602v2.602h-2.602zM50.194 69.723h2.602v2.602h-2.602zM52.796 69.723h2.602v2.602h-2.602zM60.602 69.723h2.602v2.602h-2.602zM68.408 69.723h2.602v2.602h-2.602zM76.214 69.723h2.602v2.602h-2.602zM78.816 69.723h2.602v2.602h-2.602zM84.02 69.723h2.602v2.602H84.02zM21.572 72.325h2.602v2.602h-2.602zM24.174 72.325h2.602v2.602h-2.602zM26.776 72.325h2.602v2.602h-2.602zM31.98 72.325h2.602v2.602H31.98zM44.99 72.325h2.602v2.602H44.99zM52.796 72.325h2.602v2.602h-2.602zM63.204 72.325h2.602v2.602h-2.602zM65.806 72.325h2.602v2.602h-2.602zM68.408 72.325h2.602v2.602h-2.602zM71.01 72.325h2.602v2.602H71.01zM76.214 72.325h2.602v2.602h-2.602zM21.572 74.927h2.602v2.602h-2.602zM29.378 74.927h2.602v2.602h-2.602zM34.582 74.927h2.602v2.602h-2.602zM37.184 74.927h2.602v2.602h-2.602zM39.786 74.927h2.602v2.602h-2.602zM42.388 74.927h2.602v2.602h-2.602zM47.592 74.927h2.602v2.602h-2.602zM60.602 74.927h2.602v2.602h-2.602zM63.204 74.927h2.602v2.602h-2.602zM68.408 74.927h2.602v2.602h-2.602zM84.02 74.927h2.602v2.602H84.02zM24.174 77.529h2.602v2.602h-2.602zM31.98 77.529h2.602v2.602H31.98z"/><path d="M34.582 77.529h2.602v2.602h-2.602zM39.786 77.529h2.602v2.602h-2.602zM60.602 77.529h2.602v2.602h-2.602zM63.204 77.529h2.602v2.602h-2.602zM65.806 77.529h2.602v2.602h-2.602zM68.408 77.529h2.602v2.602h-2.602zM71.01 77.529h2.602v2.602H71.01zM81.418 77.529h2.602v2.602h-2.602z"/><path d="M84.02 77.529h2.602v2.602H84.02zM21.572 80.131h2.602v2.602h-2.602zM24.174 80.131h2.602v2.602h-2.602zM26.776 80.131h2.602v2.602h-2.602zM37.184 80.131h2.602v2.602h-2.602zM42.388 80.131h2.602v2.602h-2.602zM44.99 80.131h2.602v2.602H44.99zM47.592 80.131h2.602v2.602h-2.602zM50.194 80.131h2.602v2.602h-2.602zM58 80.131h2.602v2.602H58zM60.602 80.131h2.602v2.602h-2.602zM63.204 80.131h2.602v2.602h-2.602zM68.408 80.131h2.602v2.602h-2.602zM76.214 80.131h2.602v2.602h-2.602zM78.816 80.131h2.602v2.602h-2.602zM84.02 80.131h2.602v2.602H84.02zM29.378 82.733h2.602v2.602h-2.602zM42.388 82.733h2.602v2.602h-2.602zM58 82.733h2.602v2.602H58zM60.602 82.733h2.602v2.602h-2.602zM65.806 82.733h2.602v2.602h-2.602zM68.408 82.733h2.602v2.602h-2.602zM71.01 82.733h2.602v2.602H71.01z"/><path d="M73.612 82.733h2.602v2.602h-2.602zM76.214 82.733h2.602v2.602h-2.602zM21.572 85.335h2.602v2.602h-2.602zM24.174 85.335h2.602v2.602h-2.602zM29.378 85.335h2.602v2.602h-2.602zM31.98 85.335h2.602v2.602H31.98zM37.184 85.335h2.602v2.602h-2.602zM39.786 85.335h2.602v2.602h-2.602zM50.194 85.335h2.602v2.602h-2.602zM52.796 85.335h2.602v2.602h-2.602zM60.602 85.335h2.602v2.602h-2.602zM63.204 85.335h2.602v2.602h-2.602zM65.806 85.335h2.602v2.602h-2.602zM68.408 85.335h2.602v2.602h-2.602z"/><path d="M71.01 85.335h2.602v2.602H71.01z"/><path d="M73.612 85.335h2.602v2.602h-2.602zM81.418 85.335h2.602v2.602h-2.602zM42.388 87.937h2.602v2.602h-2.602zM44.99 87.937h2.602v2.602H44.99zM52.796 87.937h2.602v2.602h-2.602zM55.398 87.937H58v2.602h-2.602zM60.602 87.937h2.602v2.602h-2.602zM63.204 87.937h2.602v2.602h-2.602zM73.612 87.937h2.602v2.602h-2.602zM84.02 87.937h2.602v2.602H84.02zM42.388 90.539h2.602v2.602h-2.602zM47.592 90.539h2.602v2.602h-2.602zM52.796 90.539h2.602v2.602h-2.602zM63.204 90.539h2.602v2.602h-2.602zM68.408 90.539h2.602v2.602h-2.602zM73.612 90.539h2.602v2.602h-2.602zM84.02 90.539h2.602v2.602H84.02zM50.194 93.141h2.602v2.602h-2.602zM52.796 93.141h2.602v2.602h-2.602zM58 93.141h2.602v2.602H58zM60.602 93.141h2.602v2.602h-2.602zM63.204 93.141h2.602v2.602h-2.602zM73.612 93.141h2.602v2.602h-2.602zM47.592 95.743h2.602v2.602h-2.602z"/><path d="M52.796 95.743h2.602v2.602h-2.602zM60.602 95.743h2.602v2.602h-2.602zM63.204 95.743h2.602v2.602h-2.602zM65.806 95.743h2.602v2.602h-2.602zM68.408 95.743h2.602v2.602h-2.602zM71.01 95.743h2.602v2.602H71.01z"/><path d="M73.612 95.743h2.602v2.602h-2.602zM81.418 95.743h2.602v2.602h-2.602zM44.99 98.345h2.602v2.602H44.99zM55.398 98.345H58v2.602h-2.602zM63.204 98.345h2.602v2.602h-2.602zM73.612 98.345h2.602v2.602h-2.602zM78.816 98.345h2.602v2.602h-2.602zM81.418 98.345h2.602v2.602h-2.602zM42.388 100.947h2.602v2.602h-2.602zM47.592 100.947h2.602v2.602h-2.602zM50.194 100.947h2.602v2.602h-2.602zM55.398 100.947H58v2.602h-2.602zM63.204 100.947h2.602v2.602h-2.602zM65.806 100.947h2.602v2.602h-2.602zM71.01 100.947h2.602v2.602H71.01z"/><path d="M73.612 100.947h2.602v2.602h-2.602zM76.214 100.947h2.602v2.602h-2.602zM81.418 100.947h2.602v2.602h-2.602z"/><path d="M84.02 100.947h2.602v2.602H84.02zM44.99 103.549h2.602v2.602H44.99zM50.194 103.549h2.602v2.602h-2.602zM52.796 103.549h2.602v2.602h-2.602zM58 103.549h2.602v2.602H58zM63.204 103.549h2.602v2.602h-2.602zM65.806 103.549h2.602v2.602h-2.602zM68.408 103.549h2.602v2.602h-2.602zM71.01 103.549h2.602v2.602H71.01z"/><path d="M73.612 103.549h2.602v2.602h-2.602zM42.388 106.151h2.602v2.602h-2.602zM47.592 106.151h2.602v2.602h-2.602zM52.796 106.151h2.602v2.602h-2.602zM58 106.151h2.602v2.602H58zM63.204 106.151h2.602v2.602h-2.602zM65.806 106.151h2.602v2.602h-2.602zM76.214 106.151h2.602v2.602h-2.602zM84.02 106.151h2.602v2.602H84.02zM37.053 43.703H21.569v18.214h18.215V43.703zm0 15.482h-12.75v-12.75h12.75zM83.89 43.703H68.408v18.214h18.214V43.703zm0 15.482H71.14v-12.75h12.749zM37.053 90.539H21.569v18.214h18.215V90.539zm0 15.482h-12.75v-12.75h12.75z"/><path d="M26.776 48.907h7.806v7.806h-7.806zM73.612 48.907h7.806v7.806h-7.806zM26.776 95.743h7.806v7.806h-7.806z"/><g><rect width="70.928" height="17.664" rx="2" fill="#f37122" transform="translate(19.02 150.67)"/><g fill="#fff"><path d="M34.663 156.751a8.8 8.8 0 0 1 1.456-.1 2.286 2.286 0 0 1 1.457.382 1.393 1.393 0 0 1 .509 1.1 1.52 1.52 0 0 1-.438 1.131 2.208 2.208 0 0 1-1.549.5 2.709 2.709 0 0 1-.368-.021v1.7h-1.068zm1.068 2.163a1.605 1.605 0 0 0 .361.028c.573 0 .927-.29.927-.778 0-.438-.3-.7-.842-.7a1.839 1.839 0 0 0-.445.042zM40.574 161.454l-.064-.347h-.021a1.243 1.243 0 0 1-.99.424 1.059 1.059 0 0 1-1.117-1.06c0-.9.806-1.331 2.029-1.323v-.049c0-.185-.1-.446-.629-.446a1.954 1.954 0 0 0-.954.261l-.2-.693a2.854 2.854 0 0 1 1.343-.3 1.345 1.345 0 0 1 1.521 1.492v1.2a5.382 5.382 0 0 0 .049.842zm-.127-1.634c-.566-.007-1 .127-1 .544a.386.386 0 0 0 .424.41.586.586 0 0 0 .559-.4.77.77 0 0 0 .021-.184zM45.643 157.995c-.014.22-.028.51-.028 1.026v1.93a1.987 1.987 0 0 1-.523 1.556 2.132 2.132 0 0 1-1.408.424 2.7 2.7 0 0 1-1.244-.269l.212-.813a2.126 2.126 0 0 0 1 .262.826.826 0 0 0 .9-.913v-.226h-.015a1.106 1.106 0 0 1-.933.453 1.523 1.523 0 0 1-1.464-1.691 1.654 1.654 0 0 1 1.57-1.817 1.041 1.041 0 0 1 .947.488h.014l.035-.411zm-1.1 1.408a.86.86 0 0 0-.021-.2.59.59 0 0 0-.58-.473c-.389 0-.707.353-.707.983 0 .516.255.92.707.92a.586.586 0 0 0 .566-.439.937.937 0 0 0 .035-.283zM48.443 161.454l-.059-.347h-.021a1.243 1.243 0 0 1-.99.424 1.059 1.059 0 0 1-1.117-1.06c0-.9.806-1.331 2.029-1.323v-.049c0-.185-.1-.446-.629-.446a1.954 1.954 0 0 0-.954.261l-.2-.693a2.854 2.854 0 0 1 1.343-.3 1.345 1.345 0 0 1 1.521 1.492v1.2a5.373 5.373 0 0 0 .05.842zm-.127-1.634c-.566-.007-1 .127-1 .544a.386.386 0 0 0 .424.41.586.586 0 0 0 .559-.4.773.773 0 0 0 .021-.184zM50.211 159.137c0-.51-.014-.842-.028-1.139h.926l.035.637h.028a1.014 1.014 0 0 1 .933-.714 1.188 1.188 0 0 1 .226.013v1.011a1.569 1.569 0 0 0-.29-.029.691.691 0 0 0-.734.545 1.2 1.2 0 0 0-.022.24v1.754h-1.074zM54.36 156.751a8.585 8.585 0 0 1 1.394-.1 2.625 2.625 0 0 1 1.408.269 1.037 1.037 0 0 1 .573.934 1.077 1.077 0 0 1-.785 1.018v.014a1.192 1.192 0 0 1 .947 1.174 1.269 1.269 0 0 1-.494 1.011 3.007 3.007 0 0 1-1.875.432 8.309 8.309 0 0 1-1.167-.072zm1.068 1.825h.354c.566 0 .87-.233.87-.587s-.275-.552-.763-.552a2.955 2.955 0 0 0-.46.028zm0 2.114a3.236 3.236 0 0 0 .417.015c.488 0 .92-.185.92-.687 0-.481-.432-.672-.969-.672h-.368zM62.057 159.686a1.735 1.735 0 0 1-1.824 1.845 1.693 1.693 0 0 1-1.789-1.782 1.726 1.726 0 0 1 1.845-1.831 1.681 1.681 0 0 1 1.768 1.768zm-2.5.035c0 .594.247 1.04.706 1.04.418 0 .687-.417.687-1.04 0-.517-.2-1.04-.687-1.04-.522 0-.712.531-.712 1.04zM62.717 156.433h1.073v5.021h-1.075zM65.489 160.067c.035.446.474.658.976.658a3.047 3.047 0 0 0 .954-.141l.141.729a3.413 3.413 0 0 1-1.252.211 1.659 1.659 0 0 1-1.845-1.76 1.732 1.732 0 0 1 1.746-1.845 1.534 1.534 0 0 1 1.542 1.725 2.545 2.545 0 0 1-.035.424zm1.266-.736a.624.624 0 0 0-.609-.7.7.7 0 0 0-.664.7zM69.598 157.006v.99h.77v.793h-.77v1.251c0 .417.1.608.424.608a1.673 1.673 0 0 0 .317-.028l.008.813a2.1 2.1 0 0 1-.7.092 1.121 1.121 0 0 1-.806-.3 1.434 1.434 0 0 1-.3-1.026v-1.412h-.46v-.793h.46v-.749zM74.37 159.686a1.735 1.735 0 0 1-1.824 1.845 1.693 1.693 0 0 1-1.789-1.782 1.726 1.726 0 0 1 1.845-1.831 1.681 1.681 0 0 1 1.768 1.768zm-2.5.035c0 .594.247 1.04.706 1.04.417 0 .687-.417.687-1.04 0-.517-.2-1.04-.687-1.04-.519 0-.709.531-.709 1.04z"/></g></g><g><path d="M51.832 176.657a.565.565 0 1 1-.565.565.565.565 0 0 1 .565-.565zM54.096 176.657a.565.565 0 1 1-.565.565.564.564 0 0 1 .565-.565zM56.361 176.657a.565.565 0 1 1-.565.565.565.565 0 0 1 .565-.565z" fill="#383838"/></g><g><g clip-path="url(#b)" transform="translate(88.295 8.88)"><path d="M6.13 0H.593a.078.078 0 0 0-.078.078v.815H.077a.078.078 0 0 0-.078.078v1.4a.078.078 0 0 0 .078.078h.438v.816a.078.078 0 0 0 .078.078h5.535a.079.079 0 0 0 .079-.078V.081a.079.079 0 0 0-.079-.078zm-.764 2.48H3.629V.86h1.737z" fill="#383838"/></g><path d="M86.707 10.588h-.005a1.193 1.193 0 1 0-2.125 0h-.006l.046.075c.016.028.031.056.05.082l.841 1.373c.107.176.182.131.257.01.06-.1.621-1.013.847-1.384.018-.025.033-.054.05-.08zm-1.068-1.126a.6.6 0 1 1-.6.6.6.6 0 0 1 .599-.6z" fill="#383838"/><rect width=".866" height="1.822" rx=".392" fill="#383838" transform="translate(79.694 10.398)"/><rect width=".867" height="2.705" rx=".392" fill="#383838" transform="translate(80.864 9.514)"/><rect width=".867" height="3.552" rx=".392" fill="#383838" transform="translate(82.051 8.667)"/></g><g><path d="M26.409 128.16a5.333 5.333 0 0 1 .983-.083 1.628 1.628 0 0 1 1.149.324.991.991 0 0 1 .312.754 1.043 1.043 0 0 1-.748 1.013v.018a.988.988 0 0 1 .583.8 6.357 6.357 0 0 0 .306 1.089h-.53a5.191 5.191 0 0 1-.266-.948c-.118-.548-.329-.754-.795-.771h-.483v1.72h-.511zm.512 1.808h.524c.548 0 .9-.3.9-.754 0-.513-.372-.737-.913-.742a2.111 2.111 0 0 0-.506.047zM30.414 132.579v-.595a1.715 1.715 0 0 1-.9-.26l.142-.394a1.562 1.562 0 0 0 .848.253c.418 0 .7-.241.7-.577s-.23-.524-.665-.7c-.6-.235-.972-.505-.972-1.018a.966.966 0 0 1 .89-.948v-.6h.365v.571a1.575 1.575 0 0 1 .765.207l-.147.389a1.416 1.416 0 0 0-.742-.2c-.453 0-.624.271-.624.506 0 .306.218.459.73.672.606.247.913.553.913 1.077a1.025 1.025 0 0 1-.931 1v.613z"/><g><path d="M66.501 135.342a11.231 11.231 0 0 0 .471-1.876l.769-.078a9.6 9.6 0 0 1-.746 1.906zM71.743 131.769c0 1.734-.643 2.69-1.773 2.69-1 0-1.671-.934-1.687-2.621 0-1.71.738-2.652 1.773-2.652 1.074.004 1.687.961 1.687 2.583zm-2.769.078c0 1.326.408 2.079 1.036 2.079.706 0 1.043-.824 1.043-2.126 0-1.255-.321-2.079-1.035-2.079-.605.003-1.044.741-1.044 2.129zM75.77 131.769c0 1.734-.643 2.69-1.773 2.69-1 0-1.671-.934-1.687-2.621 0-1.71.738-2.652 1.773-2.652 1.075.004 1.687.961 1.687 2.583zm-2.769.078c0 1.326.408 2.079 1.036 2.079.706 0 1.043-.824 1.043-2.126 0-1.255-.321-2.079-1.035-2.079-.606.003-1.044.741-1.044 2.129z"/><text transform="translate(37.133 133.323)" font-size="12" font-family="MyriadPro-Bold, Myriad Pro" font-weight="700"><tspan x="0" y="0">0000</tspan></text></g></g><path transform="translate(15.077 61.648)" fill="url(#c)" d="M0 0h78.061v33.826H0z"/><g><rect width="97.34" height="201.877" rx="12.304" fill="#dedede" transform="translate(143.882 5.271)" opacity=".5"/><path d="M172.941.892h39.22v4.889a7.051 7.051 0 0 1-7.051 7.051h-25.522a6.647 6.647 0 0 1-6.647-6.647V.892z" fill="#383838"/><path d="M234.262 212.42h-83.421a12.388 12.388 0 0 1-12.39-12.362v-187.7A12.388 12.388 0 0 1 150.837-.003h83.422a12.388 12.388 0 0 1 12.392 12.364v187.7a12.388 12.388 0 0 1-12.389 12.359zM150.841 1.958a10.425 10.425 0 0 0-10.423 10.4v187.7a10.425 10.425 0 0 0 10.423 10.4h83.422a10.425 10.425 0 0 0 10.424-10.4v-187.7a10.425 10.425 0 0 0-10.424-10.4z" fill="#383838"/><path d="M181.06 8.07a1.58 1.58 0 1 1-1.58-1.58 1.58 1.58 0 0 1 1.58 1.58z" fill="#7a7a7a"/><rect width="17.141" height="1.973" rx=".986" fill="#7a7a7a" transform="translate(183.981 7.084)"/><path d="M162.62 200.109h-6.418a.327.327 0 0 1-.327-.327v-3.21a.325.325 0 0 1 .1-.231l3.21-3.21a.328.328 0 0 1 .232-.1.325.325 0 0 1 .231.1l3.209 3.21a.328.328 0 0 1 .1.231v3.21a.327.327 0 0 1-.337.327zm-6.091-.654h5.764v-2.747l-2.881-2.883-2.883 2.883zM193.148 200.109a3.537 3.537 0 1 1 3.537-3.537 3.54 3.54 0 0 1-3.537 3.537zm0-6.42a2.883 2.883 0 1 0 2.883 2.883 2.886 2.886 0 0 0-2.883-2.883zM228.665 200.11a.327.327 0 0 1-.327-.327v-5.406a.327.327 0 0 1 .654 0v5.406a.327.327 0 0 1-.327.327zM226.301 200.11a.327.327 0 0 1-.327-.327v-5.406a.327.327 0 0 1 .654 0v5.406a.327.327 0 0 1-.327.327zM223.936 200.11a.327.327 0 0 1-.327-.327v-5.406a.327.327 0 0 1 .654 0v5.406a.327.327 0 0 1-.327.327z" fill="#383838"/><g clip-path="url(#b)" transform="translate(226.75 8.88)"><path d="M6.13 0H.594a.079.079 0 0 0-.079.079v.815H.077a.078.078 0 0 0-.078.078v1.4a.078.078 0 0 0 .078.079h.438v.816a.078.078 0 0 0 .079.078h5.535a.078.078 0 0 0 .078-.078V.083a.079.079 0 0 0-.078-.079zm-.764 2.48H3.629V.86h1.737z" fill="#383838"/></g><path d="M225.162 10.588h-.005a1.192 1.192 0 1 0-2.126 0h-.005l.046.075c.017.028.032.056.05.082l.841 1.373c.107.176.182.131.256.01.06-.1.621-1.013.848-1.384.018-.025.033-.054.05-.08zm-1.068-1.126a.6.6 0 1 1-.6.6.6.6 0 0 1 .599-.6z" fill="#383838"/><rect width=".866" height="1.822" rx=".392" fill="#383838" transform="translate(218.149 10.398)"/><rect width=".867" height="2.705" rx=".392" fill="#383838" transform="translate(219.319 9.514)"/><rect width=".867" height="3.552" rx=".392" fill="#383838" transform="translate(220.506 8.667)"/><g><path d="M157.419 101.452a10.556 10.556 0 0 1 1.648-.1 2.546 2.546 0 0 1 1.573.392 1.491 1.491 0 0 1 .57 1.2 1.63 1.63 0 0 1-.481 1.226 2.45 2.45 0 0 1-1.662.518c-.126 0-.244-.008-.325-.015v1.692h-1.323zm1.323 2.2c.074.007.162.014.3.014.524 0 .85-.266.85-.694 0-.37-.251-.621-.754-.621a1.987 1.987 0 0 0-.4.03zM163.812 106.366l-.074-.318h-.022a1.309 1.309 0 0 1-1.013.4 1.14 1.14 0 0 1-1.2-1.145c0-.975.872-1.4 2.105-1.411v-.03c0-.147-.111-.311-.59-.311a2.186 2.186 0 0 0-1.027.274l-.236-.85a3.373 3.373 0 0 1 1.507-.325 1.466 1.466 0 0 1 1.685 1.6v1.226a4.571 4.571 0 0 0 .059.887zm-.155-1.662c-.54 0-.85.154-.85.472a.335.335 0 0 0 .377.347.491.491 0 0 0 .458-.333.788.788 0 0 0 .015-.192zM169.385 102.73c-.022.222-.036.54-.036 1.124v1.979a2.075 2.075 0 0 1-.562 1.625 2.321 2.321 0 0 1-1.537.451 3.109 3.109 0 0 1-1.352-.273l.251-1a2.324 2.324 0 0 0 1.049.266.766.766 0 0 0 .842-.82v-.163h-.015a1.108 1.108 0 0 1-.908.407 1.586 1.586 0 0 1-1.53-1.765 1.736 1.736 0 0 1 1.648-1.907 1.04 1.04 0 0 1 .939.466h.015l.044-.385zm-1.366 1.5a1.352 1.352 0 0 0-.015-.17.475.475 0 0 0-.473-.413c-.318 0-.591.309-.591.886 0 .473.221.82.591.82a.464.464 0 0 0 .465-.362 1.057 1.057 0 0 0 .023-.274zM172.269 106.366l-.075-.318h-.022a1.308 1.308 0 0 1-1.012.4 1.14 1.14 0 0 1-1.2-1.145c0-.975.872-1.4 2.105-1.411v-.03c0-.147-.111-.311-.59-.311a2.188 2.188 0 0 0-1.027.274l-.236-.85a3.373 3.373 0 0 1 1.507-.325 1.466 1.466 0 0 1 1.685 1.6v1.226a4.563 4.563 0 0 0 .059.887zm-.156-1.662c-.539 0-.85.154-.85.472a.335.335 0 0 0 .377.347.491.491 0 0 0 .458-.333.791.791 0 0 0 .015-.192zM174.229 103.964c0-.48-.014-.9-.03-1.234h1.111l.052.451h.03a1.284 1.284 0 0 1 1.071-.532 1.007 1.007 0 0 1 .983.577h.015a1.523 1.523 0 0 1 .5-.428 1.376 1.376 0 0 1 .643-.148c.783 0 1.234.569 1.234 1.574v2.143h-1.294v-1.943c0-.451-.133-.709-.429-.709a.423.423 0 0 0-.406.309.851.851 0 0 0-.037.266v2.077h-1.293v-1.981c0-.405-.126-.671-.421-.671a.433.433 0 0 0-.406.3.647.647 0 0 0-.037.266v2.083h-1.294zM181.747 105.013c.043.289.465.451.931.451a3.231 3.231 0 0 0 1-.14l.17.887a3.612 3.612 0 0 1-1.359.229 1.768 1.768 0 0 1-2-1.855 1.85 1.85 0 0 1 1.883-1.936 1.647 1.647 0 0 1 1.677 1.862 2.275 2.275 0 0 1-.052.5zm1.071-.9a.534.534 0 0 0-.517-.59.6.6 0 0 0-.569.59zM184.652 103.964c0-.48-.014-.9-.03-1.234h1.146l.059.466h.03a1.3 1.3 0 0 1 1.086-.547c.849 0 1.308.577 1.308 1.574v2.143h-1.331v-1.981c0-.421-.147-.665-.465-.665a.459.459 0 0 0-.436.318.724.724 0 0 0-.037.266v2.062h-1.331zM190.485 101.696v1.033h.753v.976h-.753v1.041c0 .436.1.614.421.614a1.6 1.6 0 0 0 .317-.03v1.012a2.79 2.79 0 0 1-.791.1 1.287 1.287 0 0 1-.908-.325 1.549 1.549 0 0 1-.34-1.137v-1.271h-.45v-.976h.45v-.739zM195.533 104.511a1.838 1.838 0 0 1-1.966 1.936 1.8 1.8 0 0 1-1.928-1.877 1.834 1.834 0 0 1 2-1.921 1.784 1.784 0 0 1 1.894 1.862zm-2.519.038c0 .539.177.96.59.96.355 0 .555-.377.555-.96 0-.5-.163-.961-.562-.961-.436 0-.579.48-.579.96zM197.642 103.956c0-.575-.015-.923-.03-1.226h1.138l.044.658h.03a1.044 1.044 0 0 1 .969-.739.985.985 0 0 1 .266.022v1.249a1.406 1.406 0 0 0-.34-.038c-.392 0-.658.163-.724.459a1.059 1.059 0 0 0-.022.228v1.8h-1.33zM201.64 105.013c.045.289.465.451.931.451a3.229 3.229 0 0 0 1-.14l.17.887a3.607 3.607 0 0 1-1.359.229 1.768 1.768 0 0 1-2-1.855 1.85 1.85 0 0 1 1.884-1.936 1.647 1.647 0 0 1 1.677 1.862 2.29 2.29 0 0 1-.051.5zm1.072-.9a.534.534 0 0 0-.517-.59.6.6 0 0 0-.569.59zM206.637 106.366l-.074-.318h-.022a1.306 1.306 0 0 1-1.012.4 1.14 1.14 0 0 1-1.2-1.145c0-.975.872-1.4 2.105-1.411v-.03c0-.147-.11-.311-.591-.311a2.185 2.185 0 0 0-1.026.274l-.237-.85a3.375 3.375 0 0 1 1.507-.325 1.466 1.466 0 0 1 1.685 1.6v1.226a4.64 4.64 0 0 0 .059.887zm-.155-1.662c-.539 0-.849.154-.849.472a.334.334 0 0 0 .376.347.491.491 0 0 0 .458-.333.823.823 0 0 0 .015-.192zM208.597 101.12h1.331v5.246h-1.331zM212.101 101.726a.635.635 0 0 1-.687.635.634.634 0 1 1 .687-.635zm-1.346 4.64v-3.637h1.333v3.636zM212.678 105.605l.931-1.131c.221-.258.392-.443.613-.672v-.022h-1.425v-1.049h3.058v.791l-.872 1.064a8.683 8.683 0 0 1-.65.709v.015h1.588v1.057h-3.243zM218.598 106.366l-.074-.318h-.022a1.306 1.306 0 0 1-1.012.4 1.14 1.14 0 0 1-1.2-1.145c0-.975.872-1.4 2.105-1.411v-.03c0-.147-.111-.311-.591-.311a2.191 2.191 0 0 0-1.027.274l-.236-.85a3.372 3.372 0 0 1 1.507-.325 1.466 1.466 0 0 1 1.685 1.6v1.226a4.631 4.631 0 0 0 .059.887zm-.155-1.662c-.539 0-.85.154-.85.472a.335.335 0 0 0 .377.347.491.491 0 0 0 .458-.333.83.83 0 0 0 .014-.192zM224.238 101.12v4.093c0 .45.015.909.03 1.153h-1.182l-.052-.5h-.015a1.23 1.23 0 0 1-1.1.576 1.675 1.675 0 0 1-1.544-1.877 1.717 1.717 0 0 1 1.625-1.921 1.071 1.071 0 0 1 .893.347h.015v-1.876zm-1.33 3.177a1.372 1.372 0 0 0-.007-.17.554.554 0 0 0-.532-.466c-.443 0-.643.4-.643.879 0 .554.274.85.643.85a.525.525 0 0 0 .517-.437 1.3 1.3 0 0 0 .022-.244zM228.777 104.511a1.838 1.838 0 0 1-1.966 1.936 1.8 1.8 0 0 1-1.928-1.877 1.834 1.834 0 0 1 2-1.921 1.784 1.784 0 0 1 1.894 1.862zm-2.519.038c0 .539.177.96.59.96.355 0 .554-.377.554-.96 0-.5-.162-.961-.562-.961-.435 0-.579.48-.579.96zM174.386 115.162a2.793 2.793 0 0 1-1 .148 1.775 1.775 0 0 1-1.965-1.862 1.912 1.912 0 0 1 2.128-1.929 2.751 2.751 0 0 1 .842.126l-.191.983a1.455 1.455 0 0 0-.569-.1.812.812 0 0 0-.85.872.823.823 0 0 0 .879.871 1.524 1.524 0 0 0 .583-.089zM178.548 113.382a1.838 1.838 0 0 1-1.966 1.936 1.8 1.8 0 0 1-1.928-1.876 1.835 1.835 0 0 1 2-1.922 1.784 1.784 0 0 1 1.894 1.862zm-2.519.038c0 .539.177.96.591.96.355 0 .554-.377.554-.96 0-.5-.163-.96-.562-.96-.436-.001-.583.479-.583.959zM179.194 112.836c0-.48-.015-.9-.03-1.234h1.116l.051.451h.03a1.284 1.284 0 0 1 1.071-.533 1.009 1.009 0 0 1 .984.577h.014a1.525 1.525 0 0 1 .5-.429 1.387 1.387 0 0 1 .643-.148c.784 0 1.234.569 1.234 1.574v2.143h-1.292v-1.943c0-.451-.133-.709-.429-.709a.423.423 0 0 0-.406.31.846.846 0 0 0-.037.266v2.076h-1.293v-1.98c0-.406-.126-.672-.421-.672a.433.433 0 0 0-.406.3.644.644 0 0 0-.037.266v2.084h-1.293zM187.125 114.121a2.4 2.4 0 0 0 1.013.274c.28 0 .392-.067.392-.2s-.082-.192-.473-.317c-.8-.252-1.071-.687-1.063-1.109 0-.723.613-1.249 1.566-1.249a2.725 2.725 0 0 1 1.086.207l-.215.9a2.1 2.1 0 0 0-.806-.2c-.228 0-.362.059-.362.207 0 .118.119.192.547.333.716.236.99.606 1 1.131 0 .694-.539 1.211-1.662 1.211a2.86 2.86 0 0 1-1.241-.251zM194.013 113.995c0 .517.015.931.029 1.242h-1.144l-.06-.48h-.03a1.256 1.256 0 0 1-1.1.561c-.812 0-1.285-.524-1.285-1.574v-2.142h1.33v1.929c0 .465.155.716.465.716a.444.444 0 0 0 .429-.31.39.39 0 0 0 .037-.193v-2.142h1.33zM197.635 115.162a2.793 2.793 0 0 1-1 .148 1.775 1.775 0 0 1-1.965-1.862 1.912 1.912 0 0 1 2.128-1.929 2.753 2.753 0 0 1 .842.126l-.192.983a1.456 1.456 0 0 0-.569-.1.812.812 0 0 0-.849.872.822.822 0 0 0 .879.871 1.527 1.527 0 0 0 .584-.089zM199.167 113.885c.045.288.465.451.931.451a3.227 3.227 0 0 0 1-.141l.171.887a3.614 3.614 0 0 1-1.359.229 1.768 1.768 0 0 1-2-1.854 1.85 1.85 0 0 1 1.884-1.936 1.647 1.647 0 0 1 1.677 1.862 2.293 2.293 0 0 1-.051.5zm1.072-.9a.535.535 0 0 0-.518-.591.6.6 0 0 0-.569.591zM202.103 114.121a2.4 2.4 0 0 0 1.012.274c.281 0 .392-.067.392-.2s-.081-.192-.473-.317c-.8-.252-1.072-.687-1.064-1.109 0-.723.614-1.249 1.566-1.249a2.722 2.722 0 0 1 1.086.207l-.215.9a2.092 2.092 0 0 0-.8-.2c-.228 0-.362.059-.362.207 0 .118.118.192.547.333.716.236.99.606 1 1.131 0 .694-.539 1.211-1.662 1.211a2.867 2.867 0 0 1-1.242-.251zM205.437 114.121a2.4 2.4 0 0 0 1.012.274c.281 0 .392-.067.392-.2s-.081-.192-.473-.317c-.8-.252-1.071-.687-1.064-1.109 0-.723.614-1.249 1.566-1.249a2.719 2.719 0 0 1 1.086.207l-.214.9a2.1 2.1 0 0 0-.806-.2c-.228 0-.362.059-.362.207 0 .118.119.192.547.333.716.236.99.606 1 1.131 0 .694-.539 1.211-1.662 1.211a2.865 2.865 0 0 1-1.241-.251zM212.45 113.382a1.838 1.838 0 0 1-1.966 1.936 1.8 1.8 0 0 1-1.928-1.876 1.835 1.835 0 0 1 2-1.922 1.784 1.784 0 0 1 1.894 1.862zm-2.519.038c0 .539.177.96.59.96.355 0 .554-.377.554-.96 0-.5-.163-.96-.561-.96-.436-.001-.588.479-.588.959zM212.969 114.556a.758.758 0 1 1 1.515 0 .723.723 0 0 1-.753.761.733.733 0 0 1-.762-.761zm.266-1.034l-.192-3.266h1.375l-.192 3.266z"/></g><g><path d="M182.757 75.12a10.466 10.466 0 1 1 8.064 12.412 10.466 10.466 0 0 1-8.064-12.412z" fill="#f37122"/><path d="M191.458 82.298a.463.463 0 0 1-.336-.144l-3.7-3.883a.464.464 0 0 1 .671-.64l3.34 3.5 5.881-7.172a.464.464 0 0 1 .717.588l-6.213 7.578a.465.465 0 0 1-.341.169z" fill="#fff"/></g><g><path d="M223.786 152.6h-61.274a5 5 0 0 1-4.991-4.991v-.6a5 5 0 0 1 4.991-4.991h61.274a5 5 0 0 1 4.991 4.991v.6a5 5 0 0 1-4.991 4.991zm-61.274-10.255a4.669 4.669 0 0 0-4.664 4.664v.6a4.669 4.669 0 0 0 4.664 4.66h61.274a4.669 4.669 0 0 0 4.664-4.664v-.6a4.669 4.669 0 0 0-4.664-4.664z" fill="#383838"/><g fill="#383838"><path d="M179.688 148.726a2.226 2.226 0 0 1-.917.165 1.623 1.623 0 0 1-1.715-1.757 1.728 1.728 0 0 1 1.813-1.823 1.866 1.866 0 0 1 .824.154l-.108.366a1.623 1.623 0 0 0-.7-.145 1.291 1.291 0 0 0-1.355 1.432 1.262 1.262 0 0 0 1.334 1.4 1.788 1.788 0 0 0 .731-.145zM183.463 147.576a1.218 1.218 0 0 1-1.241 1.324 1.185 1.185 0 0 1-1.2-1.283 1.217 1.217 0 0 1 1.236-1.324 1.18 1.18 0 0 1 1.205 1.283zm-1.977.026c0 .546.313.958.757.958s.757-.407.757-.968c0-.423-.211-.958-.746-.958s-.769.494-.769.967zM185.065 147.024c0-.257-.005-.468-.021-.674h.4l.02.4h.015a.861.861 0 0 1 .784-.458.737.737 0 0 1 .705.5h.01a1.037 1.037 0 0 1 .279-.324.855.855 0 0 1 .551-.175c.33 0 .818.216.818 1.082v1.468h-.443v-1.412c0-.479-.175-.766-.54-.766a.587.587 0 0 0-.536.411.733.733 0 0 0-.036.226v1.54h-.444v-1.493c0-.4-.175-.684-.52-.684a.618.618 0 0 0-.561.453.631.631 0 0 0-.036.222v1.5h-.443zM190.389 147.164c0-.319-.01-.577-.02-.814h.407l.02.427h.01a.981.981 0 0 1 .886-.484 1.13 1.13 0 0 1 1.056 1.267 1.181 1.181 0 0 1-1.134 1.34.875.875 0 0 1-.767-.392h-.01v1.354h-.449zm.449.665a1.018 1.018 0 0 0 .02.185.7.7 0 0 0 .68.531c.479 0 .757-.391.757-.963 0-.5-.262-.928-.742-.928a.784.784 0 0 0-.715.747zM195.73 148.843l-.036-.315h-.016a.928.928 0 0 1-.762.372.711.711 0 0 1-.763-.716c0-.6.536-.932 1.5-.927v-.048a.514.514 0 0 0-.566-.577 1.241 1.241 0 0 0-.649.185l-.1-.3a1.546 1.546 0 0 1 .819-.222c.762 0 .948.52.948 1.02v.933a3.449 3.449 0 0 0 .041.6zm-.067-1.272c-.495-.01-1.056.077-1.056.561a.4.4 0 0 0 .428.433.62.62 0 0 0 .6-.417.468.468 0 0 0 .026-.144zM197.861 147.128c0-.294-.005-.546-.02-.778h.4l.016.489h.021a.747.747 0 0 1 .69-.546.482.482 0 0 1 .128.016v.427a.66.66 0 0 0-.154-.015.636.636 0 0 0-.608.582 1.255 1.255 0 0 0-.02.211v1.329h-.448zM201.245 145.633v.716h.649v.345h-.649v1.344c0 .309.088.484.339.484a1.013 1.013 0 0 0 .264-.031l.02.34a1.112 1.112 0 0 1-.4.062.627.627 0 0 1-.489-.191.918.918 0 0 1-.175-.649v-1.36h-.386v-.345h.386v-.6zM203.938 145.649a.281.281 0 0 1-.561 0 .275.275 0 0 1 .282-.283.269.269 0 0 1 .279.283zm-.5 3.193v-2.493h.453v2.493zM205.669 145.186h.453v3.657h-.453zM207.914 145.186h.453v1.555h.01a.846.846 0 0 1 .324-.319.938.938 0 0 1 .464-.129c.335 0 .87.207.87 1.066v1.483h-.453v-1.432c0-.4-.15-.742-.577-.742a.652.652 0 0 0-.608.453.552.552 0 0 0-.03.216v1.5h-.453zM213.182 148.843l-.036-.315h-.015a.928.928 0 0 1-.763.372.71.71 0 0 1-.762-.716c0-.6.536-.932 1.5-.927v-.048a.514.514 0 0 0-.566-.577 1.246 1.246 0 0 0-.65.185l-.1-.3a1.548 1.548 0 0 1 .819-.222c.763 0 .948.52.948 1.02v.933a3.537 3.537 0 0 0 .041.6zm-.067-1.272c-.494-.01-1.055.077-1.055.561a.4.4 0 0 0 .427.433.62.62 0 0 0 .6-.417.463.463 0 0 0 .026-.144zM215.315 147.128c0-.294-.006-.546-.022-.778h.4l.015.489h.022a.746.746 0 0 1 .689-.546.5.5 0 0 1 .13.016v.427a.676.676 0 0 0-.155-.015.635.635 0 0 0-.608.582 1.244 1.244 0 0 0-.021.211v1.329h-.447z"/></g><path d="M171.972 145.462a1.131 1.131 0 1 1-1.131-1.131 1.131 1.131 0 0 1 1.131 1.131zM172.119 149.782a.506.506 0 1 1-.506-.506.506.506 0 0 1 .506.506zM174.211 148.091a.816.816 0 1 1-.742-.884.816.816 0 0 1 .742.884z" fill="#383838"/><path fill="#383838" d="M170.698 145.618l.285-.285 2.558 2.558-.285.285z"/><path fill="#383838" d="M171.472 149.651l1.785-1.76.283.286-1.785 1.76z"/></g><g><path d="M223.786 166.117h-61.274a5 5 0 0 1-4.991-4.991v-.6a5 5 0 0 1 4.991-4.99h61.274a5 5 0 0 1 4.991 4.99v.6a5 5 0 0 1-4.991 4.991zm-61.274-10.254a4.669 4.669 0 0 0-4.664 4.663v.6a4.669 4.669 0 0 0 4.664 4.664h61.274a4.669 4.669 0 0 0 4.664-4.664v-.6a4.669 4.669 0 0 0-4.664-4.663z" fill="#383838"/><g fill="#383838"><path d="M186.714 162.467a1.584 1.584 0 0 0 .8.227c.459 0 .726-.242.726-.592 0-.324-.185-.51-.654-.69-.567-.2-.916-.495-.916-.984a1 1 0 0 1 1.122-.943 1.585 1.585 0 0 1 .768.169l-.124.366a1.381 1.381 0 0 0-.659-.165c-.474 0-.654.283-.654.52 0 .324.211.484.691.669.587.227.885.51.885 1.02 0 .536-.4 1-1.215 1a1.8 1.8 0 0 1-.886-.222zM191.725 163.013l-.036-.314h-.016a.927.927 0 0 1-.762.371.711.711 0 0 1-.763-.716c0-.6.536-.932 1.5-.927v-.052a.514.514 0 0 0-.567-.577 1.241 1.241 0 0 0-.649.186l-.1-.3a1.546 1.546 0 0 1 .819-.222c.762 0 .948.52.948 1.019v.933a3.458 3.458 0 0 0 .041.6zm-.067-1.272c-.495-.011-1.056.077-1.056.561a.4.4 0 0 0 .428.433.62.62 0 0 0 .6-.417.474.474 0 0 0 .026-.145zM193.855 159.356h.453v3.657h-.453zM196.277 160.521l.489 1.4a6.514 6.514 0 0 1 .2.638h.015c.057-.206.13-.411.212-.638l.484-1.4h.473l-.978 2.492h-.433l-.947-2.492zM200.969 163.013l-.036-.314h-.015a.928.928 0 0 1-.763.371.71.71 0 0 1-.762-.716c0-.6.536-.932 1.5-.927v-.052a.514.514 0 0 0-.566-.577 1.245 1.245 0 0 0-.649.186l-.1-.3a1.547 1.547 0 0 1 .819-.222c.763 0 .948.52.948 1.019v.933a3.533 3.533 0 0 0 .041.6zm-.067-1.272c-.494-.011-1.055.077-1.055.561a.4.4 0 0 0 .428.433.619.619 0 0 0 .6-.417.471.471 0 0 0 .026-.145zM203.101 161.298c0-.293-.006-.546-.021-.777h.4l.015.489h.021a.747.747 0 0 1 .689-.546.524.524 0 0 1 .13.015v.428a.687.687 0 0 0-.155-.016.635.635 0 0 0-.608.582 1.238 1.238 0 0 0-.021.211v1.328h-.448z"/></g><path d="M183.344 163.615h-5.385a.215.215 0 0 1-.215-.215v-2.733a.215.215 0 0 1 .43 0v2.518h4.956v-2.518a.215.215 0 0 1 .43 0v2.733a.215.215 0 0 1-.216.215z" fill="#383838"/><path d="M180.653 162.154a.215.215 0 0 1-.215-.215v-3.685a.215.215 0 0 1 .43 0v3.681a.215.215 0 0 1-.215.219z" fill="#383838"/><path d="M179.384 160.88l1.255 1.255 1.234-1.234z" fill="#383838"/><path d="M180.639 162.349a.215.215 0 0 1-.152-.063l-1.255-1.255a.215.215 0 0 1 .152-.367l2.489.021a.215.215 0 0 1 .15.367l-1.234 1.234a.215.215 0 0 1-.15.063zm-.732-1.25l.732.732.72-.72z" fill="#383838"/></g></g><g><path d="M132.654 110.71l-7.287-6.6v2.733h-8.883v7.739h8.881v2.733z" fill="#dedede"/></g></svg>