<svg xmlns="http://www.w3.org/2000/svg" width="981.69" height="392.508" viewBox="0 0 981.69 392.508"><defs><clipPath id="a"><path fill="none" d="M0 0h11.394v6.148H0z"/></clipPath><clipPath id="b"><path fill="#dedede" d="M0 0h136.43v136.43H0z"/></clipPath><clipPath id="c"><path fill="#fffbe1" d="M0 0h138.557v138.557H0z"/></clipPath><linearGradient id="d" x1=".5" y1="1.12" x2=".5" y2=".12" gradientUnits="objectBoundingBox"><stop offset="0" stop-color="#fffbe1" stop-opacity="0"/><stop offset="1" stop-color="#7dc5ea"/></linearGradient></defs><path d="M496.005 172l-5.311 5.311a24.993 24.993 0 0 1 0 35.387l5.31 5.311a32.5 32.5 0 0 0 0-46.009zM476.984 198.989a5.635 5.635 0 0 0 0-7.968L473 195.005z" fill="#dedede"/><path d="M484.348 195.004a11.316 11.316 0 0 1-3.327 8.021l5.311 5.31a18.831 18.831 0 0 0 0-26.663l-5.311 5.31a11.314 11.314 0 0 1 3.327 8.022zM767.106 195.076l-14.423-13.071v5.409h-17.577v15.324h17.577v5.409zM247 195.076l-14.423-13.071v5.409H215v15.324h17.577v5.409z" fill="#dedede"/><rect width="178.759" height="370.735" rx="12.304" fill="#dedede" transform="translate(9.966 9.975)" opacity=".5"/><path d="M63.332 1.933h72.026V16.81a7.051 7.051 0 0 1-7.051 7.051H69.979a6.647 6.647 0 0 1-6.647-6.648V1.933z" fill="#383838"/><path d="M175.944 390.391H22.746A22.749 22.749 0 0 1 0 367.691V22.994A22.749 22.749 0 0 1 22.746.294h153.2a22.749 22.749 0 0 1 22.746 22.7v344.695a22.749 22.749 0 0 1-22.748 22.702zm-153.2-386.5a19.144 19.144 0 0 0-19.142 19.1v344.698a19.145 19.145 0 0 0 19.142 19.105h153.2a19.146 19.146 0 0 0 19.142-19.105V22.994a19.145 19.145 0 0 0-19.142-19.1z" fill="#383838"/><path d="M78.241 15.117a2.9 2.9 0 1 1-2.9-2.9 2.9 2.9 0 0 1 2.9 2.9z" fill="#7a7a7a"/><rect width="31.478" height="3.622" rx="1.253" fill="#7a7a7a" transform="translate(83.606 13.304)"/><path d="M163.474 280.727H46.526A9.362 9.362 0 0 1 37 271.561v-1.1a9.362 9.362 0 0 1 9.526-9.166h116.948a9.362 9.362 0 0 1 9.526 9.166v1.1a9.362 9.362 0 0 1-9.526 9.166zM46.526 261.895a8.747 8.747 0 0 0-8.9 8.565v1.1a8.747 8.747 0 0 0 8.9 8.565h116.948a8.747 8.747 0 0 0 8.9-8.565v-1.1a8.747 8.747 0 0 0-8.9-8.565z" fill="#383838"/><text transform="translate(64 273.294)" font-size="10" font-family="MyriadPro-Regular, Myriad Pro" letter-spacing=".2em"><tspan x="0" y="0">Pagar com Pix</tspan></text><path d="M44.378 367.783H32.592a.6.6 0 0 1-.6-.6v-5.895a.6.6 0 0 1 .175-.424l5.895-5.9a.6.6 0 0 1 .425-.177.6.6 0 0 1 .424.177l5.893 5.9a.6.6 0 0 1 .175.424v5.895a.6.6 0 0 1-.601.6zm-11.186-1.2h10.585v-5.045l-5.292-5.3-5.294 5.3zM100.442 367.783a6.5 6.5 0 1 1 6.5-6.5 6.5 6.5 0 0 1-6.5 6.5zm0-11.79a5.295 5.295 0 1 0 5.294 5.3 5.3 5.3 0 0 0-5.294-5.301zM165.666 367.782a.6.6 0 0 1-.6-.6v-9.925a.6.6 0 0 1 1.2 0v9.927a.6.6 0 0 1-.6.598zM161.324 367.782a.6.6 0 0 1-.6-.6v-9.925a.6.6 0 1 1 1.2 0v9.927a.6.6 0 0 1-.6.598zM156.981 367.782a.6.6 0 0 1-.6-.6v-9.925a.6.6 0 0 1 1.2 0v9.927a.6.6 0 0 1-.6.598z" fill="#383838"/><g><g clip-path="url(#a)" transform="translate(162.148 16.601)"><path d="M11.257 0H1.092a.145.145 0 0 0-.145.144v1.5h-.8a.144.144 0 0 0-.143.144v2.563a.144.144 0 0 0 .143.144h.8v1.5a.144.144 0 0 0 .145.143h10.165a.143.143 0 0 0 .143-.143V.147a.144.144 0 0 0-.143-.144zm-1.4 4.555H6.668V1.58h3.189z" fill="#383838"/></g><path d="M159.231 19.738h-.01a2.19 2.19 0 1 0-3.9 0h-.01l.084.138c.031.051.059.1.091.15l1.545 2.522c.2.323.334.241.471.019.11-.177 1.141-1.86 1.557-2.542.034-.047.06-.1.091-.148zm-1.962-2.069a1.095 1.095 0 1 1-1.094 1.1 1.095 1.095 0 0 1 1.095-1.1z" fill="#383838"/><rect width="1.591" height="3.346" rx=".392" fill="#383838" transform="translate(146.353 19.388)"/><rect width="1.592" height="4.967" rx=".392" fill="#383838" transform="translate(148.501 17.766)"/><rect width="1.592" height="6.524" rx=".392" fill="#383838" transform="translate(150.681 16.21)"/></g><g><path d="M89.934 198.433v-22.2a7.4 7.4 0 0 1 7.395-7.391l6.553.01a7.384 7.384 0 0 1 7.369 7.384v4.725a7.4 7.4 0 0 1-7.395 7.395h-9.26M113.083 168.839h2.843a3.035 3.035 0 0 1 3.034 3.035v16.581" fill="none" stroke="#939598" stroke-linecap="round" stroke-linejoin="round" stroke-miterlimit="10"/><path d="M118.35 166.271l-1.289-1.289a.819.819 0 0 1 0-1.158l1.288-1.288a.82.82 0 0 1 1.16 0l1.288 1.288a.819.819 0 0 1 0 1.158l-1.289 1.289a.819.819 0 0 1-1.159 0" fill="#f37122"/><path d="M124.414 168.824h2.819a5.468 5.468 0 0 1 3.867 1.6l6.594 6.6a2.187 2.187 0 0 0 3.093 0l6.57-6.57a5.468 5.468 0 0 1 3.867-1.606h2.29M124.414 188.31h2.819a5.468 5.468 0 0 0 3.867-1.6l6.594-6.594a2.187 2.187 0 0 1 3.093 0l6.57 6.57a5.468 5.468 0 0 0 3.867 1.6h2.29" fill="none" stroke="#939598" stroke-linecap="round" stroke-linejoin="round" stroke-miterlimit="10"/><path d="M73.125 192.522a5.265 5.265 0 0 1-3.746-1.551l-5.409-5.409a1.028 1.028 0 0 0-1.421 0l-5.429 5.429a5.266 5.266 0 0 1-3.746 1.551h-1.067l6.851 6.851a5.479 5.479 0 0 0 7.748 0l6.871-6.871zM53.374 173.388a5.265 5.265 0 0 1 3.746 1.551l5.429 5.43a1.006 1.006 0 0 0 1.421 0l5.409-5.41a5.265 5.265 0 0 1 3.746-1.551h.652l-6.87-6.871a5.479 5.479 0 0 0-7.748 0l-6.851 6.851z" fill="#f37122"/><path d="M79.46 179.091l-4.152-4.152a.79.79 0 0 1-.295.06h-1.888a3.731 3.731 0 0 0-2.621 1.086l-5.409 5.409a2.588 2.588 0 0 1-1.836.76 2.59 2.59 0 0 1-1.836-.759l-5.43-5.43a3.731 3.731 0 0 0-2.621-1.086h-2.321a.787.787 0 0 1-.279-.056l-4.168 4.168a5.479 5.479 0 0 0 0 7.748l4.168 4.168a.788.788 0 0 1 .279-.056h2.321a3.731 3.731 0 0 0 2.621-1.086l5.429-5.429a2.659 2.659 0 0 1 3.672 0l5.409 5.409a3.73 3.73 0 0 0 2.621 1.086h1.888a.791.791 0 0 1 .295.059l4.152-4.152a5.479 5.479 0 0 0 0-7.748" fill="#f37122"/></g><g><rect width="195.088" height="386.493" rx="2" fill="#dedede" opacity=".5" transform="translate(262 6.015)"/><path fill="#dedede" d="M291 70.294h136.43v136.43H291z"/><g clip-path="url(#b)" transform="translate(291 70.294)"><path fill="#dedede" d="M-.019-.019H136.43V136.43H-.019z"/></g><path d="M338.033 79.686h4.705v4.705h-4.705zM347.443 79.686h4.705v4.705h-4.705zM352.148 79.686h4.705v4.705h-4.705zM366.263 79.686h4.705v4.705h-4.705zM342.738 84.391h4.705v4.705h-4.705zM347.443 84.391h4.705v4.705h-4.705zM356.853 84.391h4.705v4.705h-4.705zM338.033 89.096h4.705v4.705h-4.705zM342.738 89.096h4.705v4.705h-4.705zM356.853 89.096h4.705v4.705h-4.705zM361.558 89.096h4.705v4.705h-4.705zM370.969 89.096h4.705v4.705h-4.705zM375.674 89.096h4.705v4.705h-4.705zM347.443 93.801h4.705v4.705h-4.705zM352.148 93.801h4.705v4.705h-4.705zM361.558 93.801h4.705v4.705h-4.705zM366.263 93.801h4.705v4.705h-4.705zM375.674 93.801h4.705v4.705h-4.705zM342.738 98.506h4.705v4.705h-4.705zM352.148 98.506h4.705v4.705h-4.705zM366.263 98.506h4.705v4.705h-4.705zM338.033 103.211h4.705v4.705h-4.705zM347.443 103.211h4.705v4.705h-4.705zM361.558 103.211h4.705v4.705h-4.705zM375.674 103.211h4.705v4.705h-4.705zM338.033 107.916h4.705v4.705h-4.705zM347.443 107.916h4.705v4.705h-4.705zM356.853 107.916h4.705v4.705h-4.705zM366.263 107.916h4.705v4.705h-4.705zM375.674 107.916h4.705v4.705h-4.705zM366.263 112.622h4.705v4.705h-4.705zM375.674 112.622h4.705v4.705h-4.705zM300.391 117.327h4.705v4.705h-4.705zM309.802 117.327h4.705v4.705h-4.705zM328.622 117.327h4.705v4.705h-4.705zM333.327 117.327h4.705v4.705h-4.705zM347.443 117.327h4.705v4.705h-4.705zM352.148 117.327h4.705v4.705h-4.705zM366.263 117.327h4.705v4.705h-4.705zM370.969 117.327h4.705v4.705h-4.705zM375.674 117.327h4.705v4.705h-4.705zM389.789 117.327h4.705v4.705h-4.705zM403.905 117.327h4.705v4.705h-4.705zM413.315 117.327h4.705v4.705h-4.705zM300.391 122.032h4.705v4.705h-4.705zM305.097 122.032h4.705v4.705h-4.705zM323.917 122.032h4.705v4.705h-4.705zM333.327 122.032h4.705v4.705h-4.705zM338.033 122.032h4.705v4.705h-4.705zM347.443 122.032h4.705v4.705h-4.705zM361.558 122.032h4.705v4.705h-4.705zM370.969 122.032h4.705v4.705h-4.705zM375.674 122.032h4.705v4.705h-4.705zM380.379 122.032h4.705v4.705h-4.705zM385.084 122.032h4.705v4.705h-4.705zM389.789 122.032h4.705v4.705h-4.705zM399.199 122.032h4.705v4.705h-4.705zM408.61 122.032h4.705v4.705h-4.705zM413.315 122.032h4.705v4.705h-4.705zM305.097 126.737h4.705v4.705h-4.705zM309.802 126.737h4.705v4.705h-4.705zM319.212 126.737h4.705v4.705h-4.705zM323.917 126.737h4.705v4.705h-4.705zM328.622 126.737h4.705v4.705h-4.705zM333.327 126.737h4.705v4.705h-4.705zM338.033 126.737h4.705v4.705h-4.705zM352.148 126.737h4.705v4.705h-4.705zM356.853 126.737h4.705v4.705h-4.705zM370.969 126.737h4.705v4.705h-4.705zM385.084 126.737h4.705v4.705h-4.705zM399.199 126.737h4.705v4.705h-4.705zM403.905 126.737h4.705v4.705h-4.705zM413.315 126.737h4.705v4.705h-4.705zM300.391 131.442h4.705v4.705h-4.705zM305.097 131.442h4.705v4.705h-4.705zM309.802 131.442h4.705v4.705h-4.705zM319.212 131.442h4.705v4.705h-4.705zM342.738 131.442h4.705v4.705h-4.705zM356.853 131.442h4.705v4.705h-4.705zM375.674 131.442h4.705v4.705h-4.705zM380.379 131.442h4.705v4.705h-4.705zM385.084 131.442h4.705v4.705h-4.705zM389.789 131.442h4.705v4.705h-4.705zM399.199 131.442h4.705v4.705h-4.705z"/><path d="M300.391 136.147h4.705v4.705h-4.705zM314.507 136.147h4.705v4.705h-4.705zM323.917 136.147h4.705v4.705h-4.705zM328.622 136.147h4.705v4.705h-4.705zM333.327 136.147h4.705v4.705h-4.705zM338.033 136.147h4.705v4.705h-4.705zM347.443 136.147h4.705v4.705h-4.705zM370.969 136.147h4.705v4.705h-4.705zM375.674 136.147h4.705v4.705h-4.705zM385.084 136.147h4.705v4.705h-4.705zM413.315 136.147h4.705v4.705h-4.705zM305.097 140.852h4.705v4.705h-4.705zM319.212 140.852h4.705v4.705h-4.705zM323.917 140.852h4.705v4.705h-4.705zM333.327 140.852h4.705v4.705h-4.705zM370.969 140.852h4.705v4.705h-4.705zM375.674 140.852h4.705v4.705h-4.705zM380.379 140.852h4.705v4.705h-4.705zM385.084 140.852h4.705v4.705h-4.705zM389.789 140.852h4.705v4.705h-4.705zM408.61 140.852h4.705v4.705h-4.705zM413.315 140.852h4.705v4.705h-4.705zM300.391 145.558h4.705v4.705h-4.705zM305.097 145.558h4.705v4.705h-4.705zM309.802 145.558h4.705v4.705h-4.705zM328.622 145.558h4.705v4.705h-4.705zM338.033 145.558h4.705v4.705h-4.705zM342.738 145.558h4.705v4.705h-4.705zM347.443 145.558h4.705v4.705h-4.705zM352.148 145.558h4.705v4.705h-4.705zM366.263 145.558h4.705v4.705h-4.705zM370.969 145.558h4.705v4.705h-4.705zM375.674 145.558h4.705v4.705h-4.705zM385.084 145.558h4.705v4.705h-4.705zM399.199 145.558h4.705v4.705h-4.705zM403.905 145.558h4.705v4.705h-4.705zM413.315 145.558h4.705v4.705h-4.705zM314.507 150.263h4.705v4.705h-4.705zM338.033 150.263h4.705v4.705h-4.705zM366.263 150.263h4.705v4.705h-4.705zM370.969 150.263h4.705v4.705h-4.705zM380.379 150.263h4.705v4.705h-4.705zM385.084 150.263h4.705v4.705h-4.705zM389.789 150.263h4.705v4.705h-4.705zM394.494 150.263h4.705v4.705h-4.705zM399.199 150.263h4.705v4.705h-4.705zM300.391 154.968h4.705v4.705h-4.705zM305.097 154.968h4.705v4.705h-4.705z"/><path d="M314.507 154.968h4.705v4.705h-4.705zM319.212 154.968h4.705v4.705h-4.705zM328.622 154.968h4.705v4.705h-4.705zM333.327 154.968h4.705v4.705h-4.705zM352.148 154.968h4.705v4.705h-4.705zM356.853 154.968h4.705v4.705h-4.705zM370.969 154.968h4.705v4.705h-4.705zM375.674 154.968h4.705v4.705h-4.705zM380.379 154.968h4.705v4.705h-4.705zM385.084 154.968h4.705v4.705h-4.705zM389.789 154.968h4.705v4.705h-4.705zM394.494 154.968h4.705v4.705h-4.705zM408.61 154.968h4.705v4.705h-4.705zM338.033 159.673h4.705v4.705h-4.705zM342.738 159.673h4.705v4.705h-4.705zM356.853 159.673h4.705v4.705h-4.705zM361.558 159.673h4.705v4.705h-4.705zM370.969 159.673h4.705v4.705h-4.705zM375.674 159.673h4.705v4.705h-4.705zM394.494 159.673h4.705v4.705h-4.705zM413.315 159.673h4.705v4.705h-4.705z"/><path d="M338.033 164.378h4.705v4.705h-4.705zM347.443 164.378h4.705v4.705h-4.705zM356.853 164.378h4.705v4.705h-4.705zM375.674 164.378h4.705v4.705h-4.705zM385.084 164.378h4.705v4.705h-4.705zM394.494 164.378h4.705v4.705h-4.705zM413.315 164.378h4.705v4.705h-4.705zM352.148 169.083h4.705v4.705h-4.705zM356.853 169.083h4.705v4.705h-4.705zM366.263 169.083h4.705v4.705h-4.705zM370.969 169.083h4.705v4.705h-4.705zM375.674 169.083h4.705v4.705h-4.705zM394.494 169.083h4.705v4.705h-4.705zM347.443 173.788h4.705v4.705h-4.705zM356.853 173.788h4.705v4.705h-4.705zM370.969 173.788h4.705v4.705h-4.705zM375.674 173.788h4.705v4.705h-4.705zM380.379 173.788h4.705v4.705h-4.705zM385.084 173.788h4.705v4.705h-4.705zM389.789 173.788h4.705v4.705h-4.705zM394.494 173.788h4.705v4.705h-4.705zM408.61 173.788h4.705v4.705h-4.705zM342.738 178.494h4.705v4.705h-4.705zM361.558 178.494h4.705v4.705h-4.705zM375.674 178.494h4.705v4.705h-4.705zM394.494 178.494h4.705v4.705h-4.705zM403.905 178.494h4.705v4.705h-4.705zM408.61 178.494h4.705v4.705h-4.705zM338.033 183.199h4.705v4.705h-4.705zM347.443 183.199h4.705v4.705h-4.705zM352.148 183.199h4.705v4.705h-4.705zM361.558 183.199h4.705v4.705h-4.705zM375.674 183.199h4.705v4.705h-4.705zM380.379 183.199h4.705v4.705h-4.705zM389.789 183.199h4.705v4.705h-4.705zM394.494 183.199h4.705v4.705h-4.705zM399.199 183.199h4.705v4.705h-4.705zM408.61 183.199h4.705v4.705h-4.705zM413.315 183.199h4.705v4.705h-4.705zM342.738 187.904h4.705v4.705h-4.705z"/><path d="M352.148 187.904h4.705v4.705h-4.705zM356.853 187.904h4.705v4.705h-4.705zM366.263 187.904h4.705v4.705h-4.705zM375.674 187.904h4.705v4.705h-4.705zM380.379 187.904h4.705v4.705h-4.705zM385.084 187.904h4.705v4.705h-4.705zM389.789 187.904h4.705v4.705h-4.705zM394.494 187.904h4.705v4.705h-4.705zM338.033 192.609h4.705v4.705h-4.705zM347.443 192.609h4.705v4.705h-4.705zM356.853 192.609h4.705v4.705h-4.705zM366.263 192.609h4.705v4.705h-4.705zM375.674 192.609h4.705v4.705h-4.705zM380.379 192.609h4.705v4.705h-4.705zM399.199 192.609h4.705v4.705h-4.705zM413.315 192.609h4.705v4.705h-4.705zM328.39 79.686h-28v32.936h32.936V79.686zm0 28h-23.058V84.627h23.058zM413.08 79.686h-28v32.936h32.94V79.686zm0 28h-23.055V84.627h23.055zM328.39 164.378h-28v32.936h32.936v-32.936zm0 28h-23.058v-23.059h23.058z"/><path d="M309.802 89.096h14.115v14.115h-14.115zM394.494 89.096h14.115v14.115h-14.115zM309.802 173.788h14.115v14.115h-14.115z"/><text transform="translate(295 45.294)" fill="#414042" font-size="14" font-family="MyriadPro-Regular, Myriad Pro"><tspan x="0" y="0">Pagar boleto via Pix</tspan></text><g><rect width="136.431" height="35.021" rx="2.587" fill="#f37122" transform="translate(291 277)"/><text transform="translate(322 298)" fill="#fff" font-size="14" font-family="MyriadPro-Regular, Myriad Pro"><tspan x="0" y="0">Ler </tspan><tspan y="0" font-family="MyriadPro-Bold, Myriad Pro" font-weight="700">QR Code</tspan></text></g></g><g><rect width="178.759" height="370.735" rx="12.304" fill="#dedede" transform="translate(530.966 9.975)" opacity=".5"/><path d="M584.333 1.933h72.026V16.81a7.051 7.051 0 0 1-7.051 7.051H590.98a6.647 6.647 0 0 1-6.647-6.648V1.933z" fill="#383838"/><path d="M696.944 390.391h-153.2a22.749 22.749 0 0 1-22.747-22.7V22.994a22.749 22.749 0 0 1 22.747-22.7h153.2a22.75 22.75 0 0 1 22.747 22.7v344.695a22.75 22.75 0 0 1-22.747 22.702zm-153.2-386.5a19.145 19.145 0 0 0-19.143 19.1v344.698a19.147 19.147 0 0 0 19.143 19.105h153.2a19.147 19.147 0 0 0 19.143-19.105V22.994a19.145 19.145 0 0 0-19.143-19.1z" fill="#383838"/><path d="M599.241 15.117a2.9 2.9 0 1 1-2.9-2.9 2.9 2.9 0 0 1 2.9 2.9z" fill="#7a7a7a"/><rect width="31.478" height="3.622" rx="1.253" fill="#7a7a7a" transform="translate(604.606 13.304)"/><path d="M565.38 367.782h-11.788a.6.6 0 0 1-.6-.6v-5.895a.6.6 0 0 1 .175-.424l5.895-5.9a.617.617 0 0 1 .849 0l5.893 5.9a.6.6 0 0 1 .177.424v5.895a.6.6 0 0 1-.601.6zm-11.187-1.2h10.587v-5.046l-5.294-5.3-5.293 5.3zM621.442 367.783a6.5 6.5 0 1 1 6.5-6.5 6.5 6.5 0 0 1-6.5 6.5zm0-11.79a5.295 5.295 0 1 0 5.294 5.3 5.3 5.3 0 0 0-5.294-5.301zM686.666 367.782a.6.6 0 0 1-.6-.6v-9.925a.6.6 0 0 1 1.2 0v9.927a.6.6 0 0 1-.6.598zM682.324 367.782a.6.6 0 0 1-.6-.6v-9.925a.6.6 0 0 1 1.2 0v9.927a.6.6 0 0 1-.6.598zM677.981 367.782a.6.6 0 0 1-.6-.6v-9.925a.6.6 0 0 1 1.2 0v9.927a.6.6 0 0 1-.6.598z" fill="#383838"/><path fill="#fffbe1" d="M551.077 71.014h138.557v138.557H551.077z"/><g clip-path="url(#c)" transform="translate(551.077 71.014)"><path fill="#dedede" d="M-.019-.019h138.576v138.576H-.019z"/></g><path d="M598.843 80.552h4.778v4.778h-4.778zM608.4 80.552h4.778v4.778H608.4zM613.178 80.552h4.779v4.778h-4.779zM627.514 80.552h4.778v4.778h-4.778zM603.621 85.33h4.778v4.778h-4.778z"/><path d="M608.4 85.33h4.778v4.778H608.4zM617.957 85.33h4.778v4.778h-4.778zM598.843 90.109h4.778v4.778h-4.778zM603.621 90.109h4.778v4.778h-4.778zM617.957 90.109h4.778v4.778h-4.778zM622.735 90.109h4.778v4.778h-4.778zM632.292 90.109h4.778v4.778h-4.778zM637.071 90.109h4.778v4.778h-4.778zM608.4 94.887h4.778v4.778H608.4zM613.178 94.887h4.779v4.778h-4.779zM622.735 94.887h4.778v4.778h-4.778zM627.514 94.887h4.778v4.778h-4.778zM637.071 94.887h4.778v4.778h-4.778zM603.621 99.666h4.778v4.778h-4.778zM613.178 99.666h4.779v4.778h-4.779zM627.514 99.666h4.778v4.778h-4.778zM598.843 104.444h4.778v4.778h-4.778zM608.4 104.444h4.778v4.778H608.4zM622.735 104.444h4.778v4.778h-4.778zM637.071 104.444h4.778v4.778h-4.778zM598.843 109.223h4.778v4.778h-4.778zM608.4 109.223h4.778v4.778H608.4zM617.957 109.223h4.778v4.778h-4.778zM627.514 109.223h4.778v4.778h-4.778zM637.071 109.223h4.778v4.778h-4.778zM627.514 114.001h4.778v4.778h-4.778zM637.071 114.001h4.778v4.778h-4.778zM560.615 118.78h4.778v4.778h-4.778zM570.172 118.78h4.779v4.778h-4.779zM589.286 118.78h4.778v4.778h-4.778zM594.064 118.78h4.778v4.778h-4.778zM608.4 118.78h4.778v4.778H608.4zM613.178 118.78h4.779v4.778h-4.779zM627.514 118.78h4.778v4.778h-4.778zM632.292 118.78h4.778v4.778h-4.778zM637.071 118.78h4.778v4.778h-4.778zM651.406 118.78h4.778v4.778h-4.778zM665.741 118.78h4.778v4.778h-4.778zM675.298 118.78h4.778v4.778h-4.778zM560.615 123.558h4.778v4.778h-4.778zM565.393 123.558h4.778v4.778h-4.778zM584.507 123.558h4.779v4.778h-4.779zM594.064 123.558h4.778v4.778h-4.778zM598.843 123.558h4.778v4.778h-4.778zM608.4 123.558h4.778v4.778H608.4zM622.735 123.558h4.778v4.778h-4.778zM632.292 123.558h4.778v4.778h-4.778zM637.071 123.558h4.778v4.778h-4.778zM641.849 123.558h4.778v4.778h-4.778z"/><path d="M646.627 123.558h4.779v4.778h-4.779zM651.406 123.558h4.778v4.778h-4.778zM660.963 123.558h4.778v4.778h-4.778zM670.52 123.558h4.778v4.778h-4.778zM675.298 123.558h4.778v4.778h-4.778zM565.393 128.337h4.778v4.778h-4.778zM570.172 128.337h4.779v4.778h-4.779zM579.729 128.337h4.778v4.778h-4.778z"/><path d="M584.507 128.337h4.779v4.778h-4.779zM589.286 128.337h4.778v4.778h-4.778zM594.064 128.337h4.778v4.778h-4.778zM598.843 128.337h4.778v4.778h-4.778zM613.178 128.337h4.779v4.778h-4.779zM617.957 128.337h4.778v4.778h-4.778zM632.292 128.337h4.778v4.778h-4.778zM646.627 128.337h4.779v4.778h-4.779zM660.963 128.337h4.778v4.778h-4.778zM665.741 128.337h4.778v4.778h-4.778zM675.298 128.337h4.778v4.778h-4.778zM560.615 133.115h4.778v4.778h-4.778zM565.393 133.115h4.778v4.778h-4.778zM570.172 133.115h4.779v4.778h-4.779zM579.729 133.115h4.778v4.778h-4.778zM603.621 133.115h4.778v4.778h-4.778zM617.957 133.115h4.778v4.778h-4.778zM637.071 133.115h4.778v4.778h-4.778zM641.849 133.115h4.778v4.778h-4.778z"/><path d="M646.627 133.115h4.779v4.778h-4.779zM651.406 133.115h4.778v4.778h-4.778zM660.963 133.115h4.778v4.778h-4.778zM560.615 137.894h4.778v4.778h-4.778zM574.95 137.894h4.778v4.778h-4.778zM584.507 137.894h4.779v4.778h-4.779zM589.286 137.894h4.778v4.778h-4.778zM594.064 137.894h4.778v4.778h-4.778zM598.843 137.894h4.778v4.778h-4.778zM608.4 137.894h4.778v4.778H608.4zM632.292 137.894h4.778v4.778h-4.778zM637.071 137.894h4.778v4.778h-4.778zM646.627 137.894h4.779v4.778h-4.779zM675.298 137.894h4.778v4.778h-4.778zM565.393 142.672h4.778v4.778h-4.778zM579.729 142.672h4.778v4.778h-4.778z"/><path d="M584.507 142.672h4.779v4.778h-4.779zM594.064 142.672h4.778v4.778h-4.778zM632.292 142.672h4.778v4.778h-4.778zM637.071 142.672h4.778v4.778h-4.778zM641.849 142.672h4.778v4.778h-4.778z"/><path d="M646.627 142.672h4.779v4.778h-4.779zM651.406 142.672h4.778v4.778h-4.778zM670.52 142.672h4.778v4.778h-4.778zM675.298 142.672h4.778v4.778h-4.778zM560.615 147.451h4.778v4.778h-4.778zM565.393 147.451h4.778v4.778h-4.778zM570.172 147.451h4.779v4.778h-4.779zM589.286 147.451h4.778v4.778h-4.778zM598.843 147.451h4.778v4.778h-4.778zM603.621 147.451h4.778v4.778h-4.778zM608.4 147.451h4.778v4.778H608.4zM613.178 147.451h4.779v4.778h-4.779zM627.514 147.451h4.778v4.778h-4.778zM632.292 147.451h4.778v4.778h-4.778zM637.071 147.451h4.778v4.778h-4.778zM646.627 147.451h4.779v4.778h-4.779zM660.963 147.451h4.778v4.778h-4.778zM665.741 147.451h4.778v4.778h-4.778zM675.298 147.451h4.778v4.778h-4.778zM574.95 152.229h4.778v4.778h-4.778zM598.843 152.229h4.778v4.778h-4.778zM627.514 152.229h4.778v4.778h-4.778zM632.292 152.229h4.778v4.778h-4.778zM641.849 152.229h4.778v4.778h-4.778z"/><path d="M646.627 152.229h4.779v4.778h-4.779zM651.406 152.229h4.778v4.778h-4.778zM656.185 152.229h4.778v4.778h-4.778zM660.963 152.229h4.778v4.778h-4.778zM560.615 157.008h4.778v4.778h-4.778zM565.393 157.008h4.778v4.778h-4.778zM574.95 157.008h4.778v4.778h-4.778zM579.729 157.008h4.778v4.778h-4.778zM589.286 157.008h4.778v4.778h-4.778zM594.064 157.008h4.778v4.778h-4.778zM613.178 157.008h4.779v4.778h-4.779zM617.957 157.008h4.778v4.778h-4.778zM632.292 157.008h4.778v4.778h-4.778zM637.071 157.008h4.778v4.778h-4.778zM641.849 157.008h4.778v4.778h-4.778z"/><path d="M646.627 157.008h4.779v4.778h-4.779zM651.406 157.008h4.778v4.778h-4.778zM656.185 157.008h4.778v4.778h-4.778zM670.52 157.008h4.778v4.778h-4.778zM598.843 161.786h4.778v4.778h-4.778zM603.621 161.786h4.778v4.778h-4.778zM617.957 161.786h4.778v4.778h-4.778zM622.735 161.786h4.778v4.778h-4.778zM632.292 161.786h4.778v4.778h-4.778zM637.071 161.786h4.778v4.778h-4.778zM656.185 161.786h4.778v4.778h-4.778zM675.298 161.786h4.778v4.778h-4.778zM598.843 166.565h4.778v4.778h-4.778zM608.4 166.565h4.778v4.778H608.4zM617.957 166.565h4.778v4.778h-4.778zM637.071 166.565h4.778v4.778h-4.778zM646.627 166.565h4.779v4.778h-4.779zM656.185 166.565h4.778v4.778h-4.778zM675.298 166.565h4.778v4.778h-4.778zM613.178 171.343h4.779v4.778h-4.779zM617.957 171.343h4.778v4.778h-4.778zM627.514 171.343h4.778v4.778h-4.778zM632.292 171.343h4.778v4.778h-4.778zM637.071 171.343h4.778v4.778h-4.778zM656.185 171.343h4.778v4.778h-4.778zM608.4 176.121h4.778v4.778H608.4zM617.957 176.121h4.778v4.778h-4.778zM632.292 176.121h4.778v4.778h-4.778zM637.071 176.121h4.778v4.778h-4.778zM641.849 176.121h4.778v4.778h-4.778z"/><path d="M646.627 176.121h4.779v4.778h-4.779zM651.406 176.121h4.778v4.778h-4.778zM656.185 176.121h4.778v4.778h-4.778zM670.52 176.121h4.778v4.778h-4.778zM603.621 180.9h4.778v4.778h-4.778zM622.735 180.9h4.778v4.778h-4.778zM637.071 180.9h4.778v4.778h-4.778zM656.185 180.9h4.778v4.778h-4.778zM665.741 180.9h4.778v4.778h-4.778zM670.52 180.9h4.778v4.778h-4.778zM598.843 185.678h4.778v4.778h-4.778zM608.4 185.678h4.778v4.778H608.4zM613.178 185.678h4.779v4.778h-4.779zM622.735 185.678h4.778v4.778h-4.778zM637.071 185.678h4.778v4.778h-4.778zM641.849 185.678h4.778v4.778h-4.778zM651.406 185.678h4.778v4.778h-4.778zM656.185 185.678h4.778v4.778h-4.778zM660.963 185.678h4.778v4.778h-4.778zM670.52 185.678h4.778v4.778h-4.778zM675.298 185.678h4.778v4.778h-4.778zM603.621 190.457h4.778v4.778h-4.778zM613.178 190.457h4.779v4.778h-4.779zM617.957 190.457h4.778v4.778h-4.778zM627.514 190.457h4.778v4.778h-4.778zM637.071 190.457h4.778v4.778h-4.778zM641.849 190.457h4.778v4.778h-4.778z"/><path d="M646.627 190.457h4.779v4.778h-4.779zM651.406 190.457h4.778v4.778h-4.778zM656.185 190.457h4.778v4.778h-4.778zM598.843 195.235h4.778v4.778h-4.778zM608.4 195.235h4.778v4.778H608.4zM617.957 195.235h4.778v4.778h-4.778zM627.514 195.235h4.778v4.778h-4.778zM637.071 195.235h4.778v4.778h-4.778zM641.849 195.235h4.778v4.778h-4.778zM660.963 195.235h4.778v4.778h-4.778zM675.298 195.235h4.778v4.778h-4.778zM589.046 80.552h-28.434v33.449h33.45V80.552zm0 28.432h-23.414V85.57h23.415zM675.059 80.552h-28.431v33.449h33.449V80.552zm0 28.432h-23.413V85.57h23.414zM589.046 166.564h-28.434v33.449h33.45v-33.449zm0 28.433h-23.414v-23.415h23.415z"/><path d="M570.172 90.109h14.335v14.335h-14.335zM656.185 90.109h14.335v14.335h-14.335zM570.172 176.121h14.335v14.335h-14.335z"/><g><rect width="130.255" height="32.44" rx="2" fill="#f37122" transform="translate(555.93 276.991)"/><g fill="#fff"><path d="M584.658 288.159a16.131 16.131 0 0 1 2.675-.183 4.2 4.2 0 0 1 2.676.7 2.559 2.559 0 0 1 .935 2.026 2.792 2.792 0 0 1-.8 2.077 4.054 4.054 0 0 1-2.845.923 4.979 4.979 0 0 1-.675-.039v3.13h-1.961zm1.961 3.973a2.939 2.939 0 0 0 .662.052c1.053 0 1.7-.532 1.7-1.428 0-.8-.558-1.285-1.547-1.285a3.385 3.385 0 0 0-.818.078zM595.513 296.796l-.117-.638h-.039a2.283 2.283 0 0 1-1.818.779 1.944 1.944 0 0 1-2.052-1.946c0-1.651 1.48-2.444 3.726-2.43v-.091c0-.339-.182-.82-1.156-.82a3.588 3.588 0 0 0-1.753.48l-.363-1.272a5.24 5.24 0 0 1 2.467-.557 2.47 2.47 0 0 1 2.793 2.739v2.208a9.879 9.879 0 0 0 .091 1.547zm-.234-3c-1.039-.013-1.844.234-1.844 1a.709.709 0 0 0 .779.753 1.076 1.076 0 0 0 1.026-.727 1.417 1.417 0 0 0 .039-.338zM604.824 290.444c-.026.4-.052.936-.052 1.885v3.544a3.65 3.65 0 0 1-.961 2.858 3.915 3.915 0 0 1-2.585.779 4.951 4.951 0 0 1-2.285-.493l.39-1.493a3.9 3.9 0 0 0 1.844.48 1.517 1.517 0 0 0 1.65-1.676v-.416h-.027a2.031 2.031 0 0 1-1.714.832c-1.571 0-2.689-1.272-2.689-3.1a3.037 3.037 0 0 1 2.884-3.337 1.911 1.911 0 0 1 1.74.9h.026l.065-.755zm-2.027 2.585a1.576 1.576 0 0 0-.039-.365 1.083 1.083 0 0 0-1.065-.869c-.714 0-1.3.649-1.3 1.8 0 .948.467 1.69 1.3 1.69a1.076 1.076 0 0 0 1.04-.807 1.721 1.721 0 0 0 .064-.519zM609.964 296.796l-.117-.638h-.039a2.283 2.283 0 0 1-1.818.779 1.945 1.945 0 0 1-2.051-1.946c0-1.651 1.48-2.444 3.726-2.43v-.091c0-.339-.182-.82-1.156-.82a3.588 3.588 0 0 0-1.753.48l-.364-1.272a5.241 5.241 0 0 1 2.467-.557 2.47 2.47 0 0 1 2.793 2.739v2.208a9.862 9.862 0 0 0 .091 1.547zm-.234-3c-1.039-.013-1.844.234-1.844 1a.709.709 0 0 0 .779.753 1.076 1.076 0 0 0 1.026-.727 1.42 1.42 0 0 0 .039-.338zM613.21 292.536c0-.936-.026-1.547-.052-2.092h1.7l.065 1.17h.052a1.863 1.863 0 0 1 1.714-1.311 2.175 2.175 0 0 1 .415.024v1.857a2.889 2.889 0 0 0-.532-.052 1.269 1.269 0 0 0-1.349 1 2.2 2.2 0 0 0-.04.442v3.222h-1.974zM620.83 288.159a15.736 15.736 0 0 1 2.559-.183 4.822 4.822 0 0 1 2.585.495 1.9 1.9 0 0 1 1.052 1.715 1.977 1.977 0 0 1-1.441 1.87v.026a2.19 2.19 0 0 1 1.74 2.155 2.331 2.331 0 0 1-.907 1.856 5.522 5.522 0 0 1-3.444.794 15.249 15.249 0 0 1-2.144-.131zm1.962 3.351h.649c1.04 0 1.6-.429 1.6-1.078s-.505-1.014-1.4-1.014a5.427 5.427 0 0 0-.845.052zm0 3.882a5.944 5.944 0 0 0 .766.027c.9 0 1.689-.339 1.689-1.261 0-.883-.793-1.234-1.779-1.234h-.677zM634.959 293.549a3.186 3.186 0 0 1-3.35 3.389 3.11 3.11 0 0 1-3.286-3.272 3.169 3.169 0 0 1 3.389-3.363 3.087 3.087 0 0 1 3.247 3.246zm-4.6.065c0 1.09.453 1.91 1.3 1.91.767 0 1.261-.766 1.261-1.91 0-.949-.364-1.91-1.261-1.91-.947 0-1.296.975-1.296 1.91zM636.177 287.575h1.973v9.222h-1.975zM641.269 294.25c.065.818.871 1.208 1.793 1.208a5.6 5.6 0 0 0 1.753-.26l.26 1.339a6.268 6.268 0 0 1-2.3.388 3.047 3.047 0 0 1-3.389-3.233 3.18 3.18 0 0 1 3.207-3.388c2.053 0 2.832 1.6 2.832 3.168a4.672 4.672 0 0 1-.065.779zm2.326-1.352a1.145 1.145 0 0 0-1.118-1.284 1.293 1.293 0 0 0-1.219 1.284zM648.813 288.627v1.818h1.414v1.456h-1.414v2.3c0 .766.182 1.117.779 1.117a3.084 3.084 0 0 0 .583-.052l.014 1.493a3.851 3.851 0 0 1-1.287.169 2.059 2.059 0 0 1-1.48-.544 2.634 2.634 0 0 1-.545-1.884v-2.6h-.844v-1.456h.844v-1.376zM657.58 293.549a3.186 3.186 0 0 1-3.35 3.389 3.11 3.11 0 0 1-3.286-3.272 3.169 3.169 0 0 1 3.389-3.363 3.087 3.087 0 0 1 3.247 3.246zm-4.6.065c0 1.09.453 1.91 1.3 1.91.766 0 1.261-.766 1.261-1.91 0-.949-.363-1.91-1.261-1.91-.95 0-1.3.975-1.3 1.91z"/></g></g><g><path d="M616.187 324.715a1.037 1.037 0 1 1-1.037 1.037 1.037 1.037 0 0 1 1.037-1.037zM620.346 324.715a1.037 1.037 0 1 1-1.037 1.037 1.036 1.036 0 0 1 1.037-1.037zM624.506 324.715a1.037 1.037 0 1 1-1.037 1.037 1.037 1.037 0 0 1 1.037-1.037z" fill="#383838"/></g><g><g clip-path="url(#a)" transform="translate(683.148 16.601)"><path d="M11.257 0H1.093a.144.144 0 0 0-.144.144v1.5h-.8a.144.144 0 0 0-.143.144v2.563a.144.144 0 0 0 .143.144h.8v1.5a.143.143 0 0 0 .144.143h10.165a.144.144 0 0 0 .144-.143V.147a.145.145 0 0 0-.144-.144zm-1.4 4.555H6.668V1.58h3.189z" fill="#383838"/></g><path d="M680.231 19.738h-.01a2.191 2.191 0 1 0-3.9 0h-.011l.085.138c.03.051.058.1.091.15l1.544 2.522c.2.323.335.241.472.019.109-.177 1.14-1.86 1.556-2.542.034-.047.06-.1.091-.148zm-1.962-2.069a1.095 1.095 0 1 1-1.094 1.1 1.1 1.1 0 0 1 1.095-1.1z" fill="#383838"/><rect width="1.591" height="3.346" rx=".392" fill="#383838" transform="translate(667.353 19.388)"/><rect width="1.592" height="4.967" rx=".392" fill="#383838" transform="translate(669.501 17.766)"/><rect width="1.592" height="6.524" rx=".392" fill="#383838" transform="translate(671.681 16.21)"/></g><g><path d="M569.501 235.646a9.793 9.793 0 0 1 1.806-.152 2.989 2.989 0 0 1 2.109.594 1.819 1.819 0 0 1 .573 1.385 1.914 1.914 0 0 1-1.374 1.861v.032a1.815 1.815 0 0 1 1.071 1.471 11.67 11.67 0 0 0 .562 2h-.973a9.532 9.532 0 0 1-.488-1.742c-.216-1.006-.6-1.384-1.46-1.416h-.887v3.158h-.939zm.941 3.32h.962c1.007 0 1.645-.551 1.645-1.384 0-.942-.682-1.352-1.677-1.363a3.874 3.874 0 0 0-.93.086zM576.855 243.769v-1.09a3.148 3.148 0 0 1-1.655-.477l.261-.724a2.871 2.871 0 0 0 1.557.465c.768 0 1.287-.443 1.287-1.06 0-.595-.422-.962-1.222-1.288-1.1-.431-1.785-.928-1.785-1.869a1.775 1.775 0 0 1 1.634-1.742v-1.095h.67v1.048a2.893 2.893 0 0 1 1.406.38l-.27.715a2.6 2.6 0 0 0-1.362-.369c-.832 0-1.146.5-1.146.93 0 .562.4.843 1.341 1.234 1.114.454 1.677 1.015 1.677 1.978a1.882 1.882 0 0 1-1.709 1.838v1.125z"/><g><path d="M643.127 248.842a20.621 20.621 0 0 0 .865-3.445l1.413-.143a17.628 17.628 0 0 1-1.369 3.5zM652.752 242.286c0 3.183-1.181 4.941-3.255 4.941-1.83 0-3.069-1.714-3.1-4.812 0-3.14 1.355-4.87 3.257-4.87 1.974 0 3.098 1.757 3.098 4.741zm-5.085.143c0 2.435.748 3.818 1.9 3.818 1.3 0 1.915-1.512 1.915-3.9 0-2.305-.59-3.818-1.9-3.818-1.109-.005-1.915 1.351-1.915 3.9zM660.147 242.286c0 3.183-1.181 4.941-3.255 4.941-1.829 0-3.068-1.714-3.1-4.812 0-3.14 1.355-4.87 3.257-4.87 1.974 0 3.098 1.757 3.098 4.741zm-5.085.143c0 2.435.748 3.818 1.9 3.818 1.3 0 1.915-1.512 1.915-3.9 0-2.305-.59-3.818-1.9-3.818-1.107-.005-1.915 1.351-1.915 3.9z"/><text transform="translate(589.194 246.607)" font-size="24" font-family="MyriadPro-Bold, Myriad Pro" font-weight="700"><tspan x="0" y="0">0000</tspan></text></g></g><path transform="translate(548.688 113.508)" fill="url(#d)" d="M0 0h143.355v62.12H0z"/></g><g><rect width="178.759" height="370.735" rx="12.304" fill="#dedede" transform="translate(792.966 9.681)" opacity=".5"/><path d="M846.332 1.639h72.026v14.877a7.051 7.051 0 0 1-7.051 7.051h-58.328a6.647 6.647 0 0 1-6.647-6.648V1.639z" fill="#383838"/><path d="M958.944 390.097H805.746a22.749 22.749 0 0 1-22.746-22.7V22.7A22.749 22.749 0 0 1 805.746 0h153.2a22.749 22.749 0 0 1 22.746 22.7v344.695a22.749 22.749 0 0 1-22.748 22.702zm-153.2-386.5a19.144 19.144 0 0 0-19.142 19.1v344.698a19.145 19.145 0 0 0 19.142 19.105h153.2a19.146 19.146 0 0 0 19.142-19.105V22.7a19.145 19.145 0 0 0-19.142-19.1z" fill="#383838"/><path d="M861.241 14.823a2.9 2.9 0 1 1-2.9-2.9 2.9 2.9 0 0 1 2.9 2.9z" fill="#7a7a7a"/><rect width="31.478" height="3.622" rx="1.253" fill="#7a7a7a" transform="translate(866.606 13.01)"/><path d="M827.378 367.489h-11.786a.6.6 0 0 1-.6-.6v-5.895a.6.6 0 0 1 .175-.424l5.895-5.9a.6.6 0 0 1 .425-.177.6.6 0 0 1 .424.177l5.893 5.9a.6.6 0 0 1 .175.424v5.895a.6.6 0 0 1-.601.6zm-11.186-1.2h10.585v-5.045l-5.292-5.3-5.294 5.3zM883.442 367.489a6.5 6.5 0 1 1 6.5-6.5 6.5 6.5 0 0 1-6.5 6.5zm0-11.79a5.295 5.295 0 1 0 5.294 5.3 5.3 5.3 0 0 0-5.294-5.301zM948.666 367.488a.6.6 0 0 1-.6-.6v-9.925a.6.6 0 0 1 1.2 0v9.927a.6.6 0 0 1-.6.598zM944.324 367.488a.6.6 0 0 1-.6-.6v-9.925a.6.6 0 1 1 1.2 0v9.927a.6.6 0 0 1-.6.598zM939.981 367.488a.6.6 0 0 1-.6-.6v-9.925a.6.6 0 0 1 1.2 0v9.927a.6.6 0 0 1-.6.598z" fill="#383838"/><g clip-path="url(#a)" transform="translate(945.148 16.307)"><path d="M11.257 0H1.092a.145.145 0 0 0-.145.144v1.5h-.8a.144.144 0 0 0-.143.144v2.563a.144.144 0 0 0 .143.144h.8v1.5a.144.144 0 0 0 .145.143h10.165a.143.143 0 0 0 .143-.143V.147a.144.144 0 0 0-.143-.144zm-1.4 4.555H6.668V1.58h3.189z" fill="#383838"/></g><path d="M942.231 19.444h-.01a2.19 2.19 0 1 0-3.9 0h-.01l.084.138c.031.051.059.1.091.15l1.545 2.522c.2.323.334.241.471.019.11-.177 1.141-1.86 1.557-2.542.034-.047.06-.1.091-.148zm-1.962-2.069a1.095 1.095 0 1 1-1.094 1.1 1.095 1.095 0 0 1 1.095-1.1z" fill="#383838"/><rect width="1.591" height="3.346" rx=".392" fill="#383838" transform="translate(929.353 19.094)"/><rect width="1.592" height="4.967" rx=".392" fill="#383838" transform="translate(931.501 17.472)"/><rect width="1.592" height="6.524" rx=".392" fill="#383838" transform="translate(933.681 15.916)"/><g><path d="M817.826 186.31a19.38 19.38 0 0 1 3.026-.19 4.675 4.675 0 0 1 2.889.719 2.738 2.738 0 0 1 1.046 2.211 2.993 2.993 0 0 1-.883 2.252 4.5 4.5 0 0 1-3.052.95c-.231 0-.449-.015-.6-.027v3.107h-2.426zm2.429 4.044c.135.012.3.027.556.027.962 0 1.561-.488 1.561-1.275 0-.68-.462-1.14-1.384-1.14a3.665 3.665 0 0 0-.732.055zM829.566 195.334l-.136-.584h-.04a2.4 2.4 0 0 1-1.859.733 2.094 2.094 0 0 1-2.2-2.1c0-1.791 1.6-2.579 3.866-2.591v-.054c0-.271-.2-.57-1.084-.57a4.015 4.015 0 0 0-1.886.5l-.434-1.561a6.2 6.2 0 0 1 2.767-.6c2.292 0 3.094 1.275 3.094 2.945v2.252a8.382 8.382 0 0 0 .109 1.629zm-.284-3.052c-.992 0-1.561.284-1.561.868a.614.614 0 0 0 .691.637.9.9 0 0 0 .841-.611 1.444 1.444 0 0 0 .028-.353zM839.8 188.657c-.04.407-.066.991-.066 2.064v3.635a3.811 3.811 0 0 1-1.031 2.985 4.263 4.263 0 0 1-2.823.828 5.712 5.712 0 0 1-2.483-.5l.462-1.845a4.268 4.268 0 0 0 1.927.488 1.407 1.407 0 0 0 1.546-1.506v-.3h-.028a2.035 2.035 0 0 1-1.667.747c-1.63 0-2.81-1.3-2.81-3.242 0-2.1 1.356-3.5 3.026-3.5a1.911 1.911 0 0 1 1.724.855h.027l.081-.706zm-2.508 2.755a2.48 2.48 0 0 0-.028-.312.872.872 0 0 0-.868-.759c-.584 0-1.086.568-1.086 1.627 0 .869.406 1.506 1.086 1.506a.853.853 0 0 0 .853-.665 1.943 1.943 0 0 0 .043-.5zM845.098 195.334l-.137-.584h-.04a2.4 2.4 0 0 1-1.859.733 2.094 2.094 0 0 1-2.2-2.1c0-1.791 1.6-2.579 3.866-2.591v-.054c0-.271-.2-.57-1.084-.57a4.018 4.018 0 0 0-1.886.5l-.434-1.561a6.2 6.2 0 0 1 2.767-.6c2.292 0 3.094 1.275 3.094 2.945v2.252a8.391 8.391 0 0 0 .109 1.629zm-.285-3.052c-.99 0-1.561.284-1.561.868a.615.615 0 0 0 .692.637.9.9 0 0 0 .841-.611 1.454 1.454 0 0 0 .028-.353zM848.696 190.923c0-.882-.026-1.656-.054-2.267h2.049l.1.828h.054a2.357 2.357 0 0 1 1.967-.977 1.849 1.849 0 0 1 1.8 1.059h.028a2.8 2.8 0 0 1 .921-.787 2.529 2.529 0 0 1 1.181-.272c1.439 0 2.267 1.044 2.267 2.891v3.935h-2.375v-3.57c0-.828-.244-1.3-.787-1.3a.777.777 0 0 0-.746.568 1.563 1.563 0 0 0-.068.488v3.814h-2.374v-3.638c0-.745-.231-1.233-.774-1.233a.8.8 0 0 0-.746.556 1.188 1.188 0 0 0-.068.489v3.826h-2.376zM862.504 192.849c.08.53.853.828 1.709.828a5.933 5.933 0 0 0 1.832-.257l.312 1.628a6.629 6.629 0 0 1-2.5.421c-2.348 0-3.676-1.29-3.676-3.406a3.4 3.4 0 0 1 3.458-3.555c2.158 0 3.08 1.587 3.08 3.419a4.187 4.187 0 0 1-.1.922zm1.967-1.655a.981.981 0 0 0-.95-1.084 1.109 1.109 0 0 0-1.045 1.084zM867.837 190.923c0-.882-.026-1.656-.054-2.267h2.1l.109.856h.054a2.4 2.4 0 0 1 1.995-1c1.559 0 2.4 1.059 2.4 2.891v3.935h-2.443V191.7c0-.773-.271-1.221-.855-1.221a.842.842 0 0 0-.8.584 1.331 1.331 0 0 0-.068.488v3.786h-2.443zM878.551 186.758v1.9h1.382v1.792h-1.383v1.912c0 .8.188 1.127.772 1.127a2.941 2.941 0 0 0 .583-.054v1.859a5.124 5.124 0 0 1-1.452.177 2.363 2.363 0 0 1-1.667-.6 2.844 2.844 0 0 1-.625-2.089v-2.334h-.828v-1.792h.827V187.3zM887.82 191.927a3.376 3.376 0 0 1-3.61 3.556 3.314 3.314 0 0 1-3.541-3.447 3.368 3.368 0 0 1 3.678-3.528 3.276 3.276 0 0 1 3.473 3.419zm-4.626.069c0 .99.325 1.764 1.084 1.764.652 0 1.018-.693 1.018-1.764 0-.922-.3-1.764-1.031-1.764-.801 0-1.072.881-1.072 1.764zM891.692 190.909c0-1.057-.028-1.695-.054-2.252h2.09l.081 1.208h.054a1.917 1.917 0 0 1 1.779-1.357 1.808 1.808 0 0 1 .488.041v2.293a2.582 2.582 0 0 0-.625-.069c-.719 0-1.208.3-1.33.843a1.943 1.943 0 0 0-.04.419v3.3h-2.443zM899.036 192.849c.083.53.855.828 1.71.828a5.927 5.927 0 0 0 1.832-.257l.312 1.628a6.622 6.622 0 0 1-2.495.421c-2.349 0-3.678-1.29-3.678-3.406a3.4 3.4 0 0 1 3.46-3.555c2.158 0 3.079 1.587 3.079 3.419a4.2 4.2 0 0 1-.094.922zm1.969-1.655a.981.981 0 0 0-.95-1.084 1.108 1.108 0 0 0-1.044 1.084zM908.211 195.334l-.135-.584h-.041a2.4 2.4 0 0 1-1.858.733 2.094 2.094 0 0 1-2.2-2.1c0-1.791 1.6-2.579 3.866-2.591v-.054c0-.271-.2-.57-1.086-.57a4.013 4.013 0 0 0-1.885.5l-.435-1.561a6.2 6.2 0 0 1 2.767-.6c2.293 0 3.094 1.275 3.094 2.945v2.252a8.513 8.513 0 0 0 .109 1.629zm-.285-3.052c-.99 0-1.559.284-1.559.868a.614.614 0 0 0 .691.637.9.9 0 0 0 .841-.611 1.515 1.515 0 0 0 .027-.353zM911.811 185.699h2.443v9.634h-2.443zM918.246 186.812a1.167 1.167 0 0 1-1.262 1.165 1.164 1.164 0 1 1 1.262-1.165zm-2.471 8.52v-6.672h2.443v6.677zM919.305 193.935l1.709-2.077c.406-.474.719-.814 1.125-1.234v-.041h-2.617v-1.927h5.617v1.453l-1.6 1.953a15.942 15.942 0 0 1-1.193 1.3v.028h2.917v1.94h-5.956zM930.177 195.334l-.137-.584H930a2.4 2.4 0 0 1-1.858.733 2.093 2.093 0 0 1-2.2-2.1c0-1.791 1.6-2.579 3.866-2.591v-.054c0-.271-.2-.57-1.086-.57a4.023 4.023 0 0 0-1.886.5l-.434-1.561a6.194 6.194 0 0 1 2.767-.6c2.293 0 3.094 1.275 3.094 2.945v2.252a8.5 8.5 0 0 0 .109 1.629zm-.285-3.052c-.99 0-1.561.284-1.561.868a.615.615 0 0 0 .693.637.9.9 0 0 0 .841-.611 1.522 1.522 0 0 0 .026-.353zM940.535 185.699v7.517c0 .827.026 1.67.054 2.117h-2.171l-.1-.909h-.028a2.258 2.258 0 0 1-2.021 1.058c-1.546 0-2.835-1.343-2.835-3.447-.015-2.238 1.411-3.528 2.985-3.528a1.965 1.965 0 0 1 1.64.637h.028v-3.445zm-2.443 5.834a2.525 2.525 0 0 0-.013-.312 1.017 1.017 0 0 0-.977-.856c-.813 0-1.181.734-1.181 1.615 0 1.018.5 1.561 1.181 1.561a.965.965 0 0 0 .95-.8 2.4 2.4 0 0 0 .04-.447zM948.871 191.927a3.376 3.376 0 0 1-3.61 3.556 3.314 3.314 0 0 1-3.541-3.447 3.368 3.368 0 0 1 3.678-3.528 3.276 3.276 0 0 1 3.473 3.419zm-4.627.069c0 .99.325 1.764 1.084 1.764.652 0 1.018-.693 1.018-1.764 0-.922-.3-1.764-1.031-1.764-.8 0-1.071.881-1.071 1.764zM848.985 211.487a5.128 5.128 0 0 1-1.845.272 3.26 3.26 0 0 1-3.609-3.419c0-1.9 1.3-3.542 3.907-3.542a5.056 5.056 0 0 1 1.546.231l-.352 1.8a2.675 2.675 0 0 0-1.044-.176 1.492 1.492 0 0 0-1.561 1.6 1.511 1.511 0 0 0 1.615 1.6 2.8 2.8 0 0 0 1.071-.163zM856.629 208.217a3.375 3.375 0 0 1-3.61 3.556 3.313 3.313 0 0 1-3.541-3.445 3.369 3.369 0 0 1 3.681-3.53 3.277 3.277 0 0 1 3.47 3.419zm-4.626.069c0 .99.325 1.764 1.084 1.764.651 0 1.018-.692 1.018-1.764 0-.923-.3-1.764-1.031-1.764-.801 0-1.072.881-1.072 1.764zM857.814 207.215c0-.882-.028-1.656-.054-2.267h2.049l.094.828h.054a2.357 2.357 0 0 1 1.967-.978 1.852 1.852 0 0 1 1.806 1.059h.026a2.8 2.8 0 0 1 .921-.787 2.548 2.548 0 0 1 1.181-.272c1.439 0 2.267 1.045 2.267 2.891v3.935h-2.375v-3.569c0-.828-.244-1.3-.787-1.3a.777.777 0 0 0-.746.569 1.55 1.55 0 0 0-.068.488v3.813h-2.374v-3.637c0-.746-.231-1.234-.774-1.234a.8.8 0 0 0-.746.556 1.183 1.183 0 0 0-.068.488v3.826h-2.374zM872.379 209.578a4.406 4.406 0 0 0 1.859.5c.515 0 .719-.123.719-.367s-.15-.352-.869-.583c-1.464-.462-1.967-1.262-1.952-2.036 0-1.328 1.125-2.293 2.876-2.293a5.006 5.006 0 0 1 1.995.38l-.394 1.656a3.853 3.853 0 0 0-1.48-.366c-.419 0-.665.109-.665.38 0 .216.218.353 1 .611 1.315.434 1.818 1.113 1.831 2.077 0 1.275-.99 2.224-3.053 2.224a5.251 5.251 0 0 1-2.279-.46zM885.028 209.344c0 .95.028 1.709.053 2.28h-2.1l-.11-.881h-.055a2.307 2.307 0 0 1-2.021 1.03c-1.492 0-2.36-.962-2.36-2.891v-3.934h2.442v3.542c0 .853.284 1.315.855 1.315a.815.815 0 0 0 .787-.569.719.719 0 0 0 .068-.354v-3.934h2.442zM891.681 211.487a5.13 5.13 0 0 1-1.845.272 3.26 3.26 0 0 1-3.609-3.419c0-1.9 1.3-3.542 3.907-3.542a5.058 5.058 0 0 1 1.546.231l-.352 1.8a2.678 2.678 0 0 0-1.046-.176 1.492 1.492 0 0 0-1.559 1.6 1.51 1.51 0 0 0 1.614 1.6 2.8 2.8 0 0 0 1.072-.163zM894.494 209.14c.082.528.855.828 1.709.828a5.927 5.927 0 0 0 1.832-.259l.313 1.628a6.64 6.64 0 0 1-2.5.42c-2.349 0-3.677-1.289-3.677-3.405a3.4 3.4 0 0 1 3.46-3.556c2.158 0 3.079 1.589 3.079 3.419a4.212 4.212 0 0 1-.094.924zm1.968-1.655a.982.982 0 0 0-.95-1.086 1.109 1.109 0 0 0-1.044 1.086zM899.885 209.578a4.4 4.4 0 0 0 1.858.5c.516 0 .719-.123.719-.367s-.149-.352-.868-.583c-1.465-.462-1.968-1.262-1.954-2.036 0-1.328 1.127-2.293 2.876-2.293a5 5 0 0 1 1.995.38l-.394 1.656a3.846 3.846 0 0 0-1.478-.366c-.42 0-.665.109-.665.38 0 .216.217.353 1 .611 1.315.434 1.818 1.113 1.831 2.077 0 1.275-.99 2.224-3.052 2.224a5.263 5.263 0 0 1-2.28-.46zM906.007 209.578a4.405 4.405 0 0 0 1.858.5c.516 0 .719-.123.719-.367s-.149-.352-.868-.583c-1.464-.462-1.967-1.262-1.954-2.036 0-1.328 1.127-2.293 2.876-2.293a5 5 0 0 1 1.995.38l-.393 1.656a3.86 3.86 0 0 0-1.48-.366c-.419 0-.665.109-.665.38 0 .216.218.353 1 .611 1.315.434 1.818 1.113 1.831 2.077 0 1.275-.99 2.224-3.053 2.224a5.261 5.261 0 0 1-2.28-.46zM918.887 208.217a3.375 3.375 0 0 1-3.61 3.556 3.314 3.314 0 0 1-3.541-3.445 3.369 3.369 0 0 1 3.677-3.529 3.277 3.277 0 0 1 3.474 3.418zm-4.626.069c0 .99.325 1.764 1.084 1.764.652 0 1.018-.692 1.018-1.764 0-.923-.3-1.764-1.031-1.764-.801 0-1.072.881-1.072 1.764zM919.84 210.376a1.391 1.391 0 1 1 2.782 0 1.327 1.327 0 0 1-1.383 1.4 1.347 1.347 0 0 1-1.399-1.4zm.488-1.9l-.353-6h2.529l-.353 6z"/></g><g><path d="M864.358 137.955a19.22 19.22 0 1 1 14.808 22.794 19.22 19.22 0 0 1-14.808-22.794z" fill="#f37122"/><path d="M880.336 151.135a.85.85 0 0 1-.614-.266l-6.8-7.131a.851.851 0 1 1 1.232-1.175l6.134 6.433 10.8-13.171a.852.852 0 0 1 1.317 1.08l-11.411 13.916a.853.853 0 0 1-.627.311z" fill="#fff"/></g><g><path d="M939.705 280.241H827.18a9.176 9.176 0 0 1-9.166-9.166v-1.1a9.176 9.176 0 0 1 9.166-9.166h112.525a9.176 9.176 0 0 1 9.166 9.166v1.1a9.176 9.176 0 0 1-9.166 9.166zM827.18 261.409a8.574 8.574 0 0 0-8.565 8.565v1.1a8.574 8.574 0 0 0 8.565 8.565h112.525a8.574 8.574 0 0 0 8.565-8.565v-1.1a8.574 8.574 0 0 0-8.565-8.565z" fill="#383838"/><g fill="#383838"><path d="M858.724 273.133a4.087 4.087 0 0 1-1.684.3 2.98 2.98 0 0 1-3.15-3.226 3.173 3.173 0 0 1 3.33-3.348 3.425 3.425 0 0 1 1.514.284l-.2.673a2.979 2.979 0 0 0-1.287-.266 2.37 2.37 0 0 0-2.488 2.63 2.318 2.318 0 0 0 2.449 2.563 3.283 3.283 0 0 0 1.343-.266zM865.656 271.015a2.238 2.238 0 0 1-2.279 2.431 2.177 2.177 0 0 1-2.195-2.356 2.235 2.235 0 0 1 2.269-2.431 2.168 2.168 0 0 1 2.205 2.356zm-3.631.047c0 1 .575 1.76 1.39 1.76.794 0 1.39-.747 1.39-1.778 0-.776-.388-1.76-1.371-1.76s-1.409.908-1.409 1.777zM868.597 270.002c0-.472-.01-.86-.038-1.238h.729l.037.737h.028a1.581 1.581 0 0 1 1.439-.842 1.354 1.354 0 0 1 1.295.918h.018a1.9 1.9 0 0 1 .512-.6 1.569 1.569 0 0 1 1.013-.322c.605 0 1.5.4 1.5 1.987v2.7h-.813v-2.592c0-.879-.321-1.408-.992-1.408a1.077 1.077 0 0 0-.984.756 1.344 1.344 0 0 0-.066.416v2.829h-.815v-2.744c0-.728-.321-1.256-.955-1.256a1.135 1.135 0 0 0-1.031.831 1.156 1.156 0 0 0-.066.407v2.762h-.813zM878.375 270.258c0-.586-.018-1.06-.037-1.494h.747l.037.784h.019a1.8 1.8 0 0 1 1.626-.889 2.074 2.074 0 0 1 1.94 2.327 2.168 2.168 0 0 1-2.082 2.46 1.606 1.606 0 0 1-1.409-.72h-.018v2.487h-.824zm.824 1.22a1.87 1.87 0 0 0 .037.34 1.283 1.283 0 0 0 1.248.974c.879 0 1.39-.718 1.39-1.768 0-.918-.482-1.7-1.362-1.7a1.44 1.44 0 0 0-1.313 1.372zM888.183 273.341l-.066-.578h-.029a1.7 1.7 0 0 1-1.4.682 1.306 1.306 0 0 1-1.4-1.315c0-1.106.984-1.712 2.753-1.7v-.095a.944.944 0 0 0-1.04-1.059 2.278 2.278 0 0 0-1.192.34l-.19-.548a2.84 2.84 0 0 1 1.5-.407c1.4 0 1.741.955 1.741 1.873v1.713a6.345 6.345 0 0 0 .076 1.1zm-.123-2.336c-.908-.019-1.94.142-1.94 1.031a.737.737 0 0 0 .786.8 1.139 1.139 0 0 0 1.106-.766.857.857 0 0 0 .048-.265zM892.098 270.192c0-.539-.01-1-.037-1.428h.727l.029.9h.038a1.373 1.373 0 0 1 1.267-1 .874.874 0 0 1 .235.029v.784a1.224 1.224 0 0 0-.282-.028 1.168 1.168 0 0 0-1.117 1.068 2.309 2.309 0 0 0-.037.388v2.441h-.823zM898.311 267.448v1.315h1.191v.633h-1.191v2.469c0 .568.161.889.623.889a1.854 1.854 0 0 0 .484-.056l.037.625a2.045 2.045 0 0 1-.738.114 1.152 1.152 0 0 1-.9-.351 1.687 1.687 0 0 1-.322-1.192v-2.5h-.71v-.633h.71v-1.1zM903.258 267.476a.515.515 0 0 1-1.031 0 .506.506 0 0 1 .519-.52.5.5 0 0 1 .512.52zm-.926 5.865v-4.578h.831v4.578zM906.435 266.626h.831v6.715h-.831zM910.558 266.626h.833v2.855h.018a1.552 1.552 0 0 1 .6-.586 1.719 1.719 0 0 1 .852-.237c.615 0 1.6.38 1.6 1.958v2.724h-.831v-2.63c0-.737-.275-1.362-1.06-1.362a1.2 1.2 0 0 0-1.117.833 1.016 1.016 0 0 0-.055.4v2.762h-.833zM920.233 273.341l-.066-.578h-.028a1.7 1.7 0 0 1-1.4.682 1.3 1.3 0 0 1-1.4-1.315c0-1.106.984-1.712 2.752-1.7v-.095a.943.943 0 0 0-1.039-1.059 2.286 2.286 0 0 0-1.193.34l-.19-.548a2.844 2.844 0 0 1 1.5-.407c1.4 0 1.741.955 1.741 1.873v1.713a6.483 6.483 0 0 0 .076 1.1zm-.124-2.336c-.907-.019-1.938.142-1.938 1.031a.737.737 0 0 0 .785.8 1.139 1.139 0 0 0 1.106-.766.855.855 0 0 0 .047-.265zM924.15 270.192c0-.539-.011-1-.04-1.428h.729l.028.9h.04a1.37 1.37 0 0 1 1.266-1 .9.9 0 0 1 .238.029v.784a1.255 1.255 0 0 0-.285-.028 1.167 1.167 0 0 0-1.116 1.068 2.308 2.308 0 0 0-.039.388v2.441h-.821z"/></g><path d="M844.552 267.133a2.078 2.078 0 1 1-2.077-2.077 2.077 2.077 0 0 1 2.077 2.077zM844.823 275.065a.929.929 0 1 1-.929-.929.928.928 0 0 1 .929.929zM848.665 271.961a1.5 1.5 0 1 1-1.362-1.623 1.5 1.5 0 0 1 1.362 1.623z" fill="#383838"/><path fill="#383838" d="M842.213 267.418l.523-.523 4.698 4.697-.524.523z"/><path fill="#383838" d="M843.635 274.824l3.278-3.233.52.527-3.278 3.233z"/></g><g><path d="M939.705 305.062H827.18a9.175 9.175 0 0 1-9.166-9.166v-1.1a9.175 9.175 0 0 1 9.166-9.164h112.525a9.175 9.175 0 0 1 9.166 9.164v1.1a9.175 9.175 0 0 1-9.166 9.166zm-112.525-18.83a8.574 8.574 0 0 0-8.565 8.564v1.1a8.574 8.574 0 0 0 8.565 8.565h112.525a8.574 8.574 0 0 0 8.565-8.565v-1.1a8.574 8.574 0 0 0-8.565-8.564z" fill="#383838"/><g fill="#383838"><path d="M871.626 298.361a2.909 2.909 0 0 0 1.476.417c.842 0 1.333-.444 1.333-1.087 0-.6-.34-.937-1.2-1.267-1.04-.37-1.683-.908-1.683-1.807a1.834 1.834 0 0 1 2.06-1.731 2.91 2.91 0 0 1 1.41.311l-.227.673a2.534 2.534 0 0 0-1.211-.3c-.871 0-1.2.52-1.2.955 0 .6.388.889 1.268 1.229 1.078.417 1.625.937 1.625 1.873 0 .984-.727 1.836-2.231 1.836a3.294 3.294 0 0 1-1.628-.407zM880.829 299.364l-.066-.577h-.029a1.7 1.7 0 0 1-1.4.681 1.306 1.306 0 0 1-1.4-1.315c0-1.105.984-1.711 2.753-1.7v-.095a.945.945 0 0 0-1.041-1.06 2.278 2.278 0 0 0-1.191.341l-.19-.548a2.839 2.839 0 0 1 1.5-.407c1.4 0 1.741.955 1.741 1.871v1.713a6.354 6.354 0 0 0 .076 1.1zm-.122-2.335c-.908-.02-1.94.142-1.94 1.03a.736.736 0 0 0 .786.8 1.139 1.139 0 0 0 1.106-.765.871.871 0 0 0 .048-.265zM884.741 292.648h.831v6.715h-.831zM889.188 294.787l.9 2.572a11.942 11.942 0 0 1 .369 1.172h.028c.1-.378.238-.756.389-1.172l.889-2.572h.869l-1.8 4.577h-.8l-1.739-4.577zM897.804 299.364l-.066-.577h-.028a1.7 1.7 0 0 1-1.4.681 1.3 1.3 0 0 1-1.4-1.315c0-1.105.984-1.711 2.752-1.7v-.095a.944.944 0 0 0-1.039-1.06 2.287 2.287 0 0 0-1.193.341l-.19-.548a2.843 2.843 0 0 1 1.5-.407c1.4 0 1.741.955 1.741 1.871v1.713a6.472 6.472 0 0 0 .076 1.1zm-.124-2.335c-.907-.02-1.938.142-1.938 1.03a.736.736 0 0 0 .786.8 1.137 1.137 0 0 0 1.105-.765.867.867 0 0 0 .047-.265zM901.719 296.215c0-.538-.011-1-.038-1.427h.728l.028.9h.039a1.373 1.373 0 0 1 1.266-1 .962.962 0 0 1 .238.028v.786a1.263 1.263 0 0 0-.285-.029 1.167 1.167 0 0 0-1.116 1.064 2.282 2.282 0 0 0-.039.388v2.44h-.822z"/></g><path d="M865.435 300.466h-9.89a.4.4 0 0 1-.4-.4v-5.019a.395.395 0 0 1 .789 0v4.625h9.1v-4.625a.395.395 0 0 1 .789 0v5.019a.394.394 0 0 1-.388.4z" fill="#383838"/><path d="M860.49 297.776a.394.394 0 0 1-.394-.394v-6.76a.395.395 0 0 1 .789 0v6.76a.394.394 0 0 1-.395.394z" fill="#383838"/><path d="M858.164 295.445l2.3 2.3 2.266-2.266z" fill="#383838"/><path d="M860.468 298.143a.393.393 0 0 1-.278-.115l-2.305-2.3a.4.4 0 0 1 .28-.674l4.571.038a.4.4 0 0 1 .276.674l-2.266 2.266a.394.394 0 0 1-.278.111zm-1.344-2.3l1.344 1.344 1.322-1.323z" fill="#383838"/></g></g></svg>